<mxfile host="app.diagrams.net" modified="2024-05-24T12:24:15.099Z" agent="Mozilla/5.0 (Windows NT 10.0; Win64; x64) AppleWebKit/537.36 (KHTML, like Gecko) Chrome/123.0.0.0 Safari/537.36 OPR/109.0.0.0" etag="LNtKxVSESZSeOJT7tBQX" version="24.4.4" type="device" pages="2">
  <diagram id="C5RBs43oDa-KdzZeNtuy" name="Page-1">
    <mxGraphModel dx="2845" dy="2347" grid="1" gridSize="10" guides="1" tooltips="1" connect="1" arrows="1" fold="1" page="1" pageScale="1" pageWidth="827" pageHeight="1169" background="none" math="0" shadow="0">
      <root>
        <mxCell id="WIyWlLk6GJQsqaUBKTNV-0" />
        <mxCell id="WIyWlLk6GJQsqaUBKTNV-1" parent="WIyWlLk6GJQsqaUBKTNV-0" />
        <mxCell id="zkfFHV4jXpPFQw0GAbJ--16" value="" style="endArrow=block;endSize=10;endFill=0;shadow=0;strokeWidth=1;rounded=1;curved=0;edgeStyle=elbowEdgeStyle;elbow=vertical;exitX=0.5;exitY=0;exitDx=0;exitDy=0;entryX=0.5;entryY=1;entryDx=0;entryDy=0;labelBackgroundColor=none;strokeColor=#457B9D;fontColor=default;fontSize=14;" parent="WIyWlLk6GJQsqaUBKTNV-1" source="FHGDtoVXzbjsq7zCovOQ-5" target="FHGDtoVXzbjsq7zCovOQ-0" edge="1">
          <mxGeometry width="160" relative="1" as="geometry">
            <mxPoint x="630" y="490" as="sourcePoint" />
            <mxPoint x="310" y="271" as="targetPoint" />
            <Array as="points">
              <mxPoint x="810" y="280" />
            </Array>
          </mxGeometry>
        </mxCell>
        <mxCell id="FHGDtoVXzbjsq7zCovOQ-0" value="owl:Thing" style="rounded=1;whiteSpace=wrap;html=1;labelBackgroundColor=none;fillColor=#A8DADC;strokeColor=#457B9D;fontColor=#1D3557;fontSize=18;" parent="WIyWlLk6GJQsqaUBKTNV-1" vertex="1">
          <mxGeometry x="750" y="-109" width="120" height="60" as="geometry" />
        </mxCell>
        <mxCell id="FHGDtoVXzbjsq7zCovOQ-1" value="DnDClass" style="rounded=1;whiteSpace=wrap;html=1;labelBackgroundColor=none;fillColor=#A8DADC;strokeColor=#457B9D;fontColor=#1D3557;fontSize=18;" parent="WIyWlLk6GJQsqaUBKTNV-1" vertex="1">
          <mxGeometry x="20" y="155" width="120" height="60" as="geometry" />
        </mxCell>
        <mxCell id="FHGDtoVXzbjsq7zCovOQ-2" value="Environment" style="rounded=1;whiteSpace=wrap;html=1;labelBackgroundColor=none;fillColor=#A8DADC;strokeColor=#457B9D;fontColor=#1D3557;fontSize=18;" parent="WIyWlLk6GJQsqaUBKTNV-1" vertex="1">
          <mxGeometry x="420" y="450" width="120" height="60" as="geometry" />
        </mxCell>
        <mxCell id="FHGDtoVXzbjsq7zCovOQ-4" value="Size" style="rounded=1;whiteSpace=wrap;html=1;labelBackgroundColor=none;fillColor=#A8DADC;strokeColor=#457B9D;fontColor=#1D3557;fontSize=18;" parent="WIyWlLk6GJQsqaUBKTNV-1" vertex="1">
          <mxGeometry x="1480" y="155" width="120" height="60" as="geometry" />
        </mxCell>
        <mxCell id="FHGDtoVXzbjsq7zCovOQ-5" value="Creature" style="rounded=1;whiteSpace=wrap;html=1;labelBackgroundColor=none;fillColor=#A8DADC;strokeColor=#457B9D;fontColor=#1D3557;fontSize=18;" parent="WIyWlLk6GJQsqaUBKTNV-1" vertex="1">
          <mxGeometry x="750" y="843" width="120" height="60" as="geometry" />
        </mxCell>
        <mxCell id="FHGDtoVXzbjsq7zCovOQ-6" value="" style="endArrow=block;endSize=10;endFill=0;shadow=0;strokeWidth=1;rounded=1;elbow=vertical;entryX=0.5;entryY=1;entryDx=0;entryDy=0;exitX=1;exitY=0.5;exitDx=0;exitDy=0;edgeStyle=orthogonalEdgeStyle;labelBackgroundColor=none;strokeColor=#457B9D;fontColor=default;fontSize=14;" parent="WIyWlLk6GJQsqaUBKTNV-1" source="FHGDtoVXzbjsq7zCovOQ-1" target="FHGDtoVXzbjsq7zCovOQ-0" edge="1">
          <mxGeometry width="160" relative="1" as="geometry">
            <mxPoint x="420" y="370" as="sourcePoint" />
            <mxPoint x="310" y="276" as="targetPoint" />
          </mxGeometry>
        </mxCell>
        <mxCell id="FHGDtoVXzbjsq7zCovOQ-7" value="" style="endArrow=block;endSize=10;endFill=0;shadow=0;strokeWidth=1;rounded=1;curved=0;edgeStyle=elbowEdgeStyle;elbow=vertical;exitX=0;exitY=0.5;exitDx=0;exitDy=0;entryX=0.5;entryY=1;entryDx=0;entryDy=0;labelBackgroundColor=none;strokeColor=#457B9D;fontColor=default;fontSize=14;" parent="WIyWlLk6GJQsqaUBKTNV-1" source="FHGDtoVXzbjsq7zCovOQ-4" target="FHGDtoVXzbjsq7zCovOQ-0" edge="1">
          <mxGeometry width="160" relative="1" as="geometry">
            <mxPoint x="430" y="380" as="sourcePoint" />
            <mxPoint x="810" y="170" as="targetPoint" />
            <Array as="points">
              <mxPoint x="1150" y="185" />
            </Array>
          </mxGeometry>
        </mxCell>
        <mxCell id="FHGDtoVXzbjsq7zCovOQ-8" value="" style="endArrow=block;endSize=10;endFill=0;shadow=0;strokeWidth=1;rounded=1;curved=0;edgeStyle=elbowEdgeStyle;elbow=vertical;exitX=0.5;exitY=0;exitDx=0;exitDy=0;entryX=0.5;entryY=1;entryDx=0;entryDy=0;labelBackgroundColor=none;strokeColor=#457B9D;fontColor=default;fontSize=14;" parent="WIyWlLk6GJQsqaUBKTNV-1" source="FHGDtoVXzbjsq7zCovOQ-2" target="FHGDtoVXzbjsq7zCovOQ-0" edge="1">
          <mxGeometry width="160" relative="1" as="geometry">
            <mxPoint x="440" y="390" as="sourcePoint" />
            <mxPoint x="810" y="170" as="targetPoint" />
            <Array as="points">
              <mxPoint x="810" y="280" />
            </Array>
          </mxGeometry>
        </mxCell>
        <mxCell id="FHGDtoVXzbjsq7zCovOQ-9" value="" style="endArrow=block;endSize=10;endFill=0;shadow=0;strokeWidth=1;rounded=1;curved=0;edgeStyle=elbowEdgeStyle;elbow=vertical;exitX=0.5;exitY=0;exitDx=0;exitDy=0;entryX=0.5;entryY=1;entryDx=0;entryDy=0;labelBackgroundColor=none;strokeColor=#457B9D;fontColor=default;fontSize=14;" parent="WIyWlLk6GJQsqaUBKTNV-1" source="FHGDtoVXzbjsq7zCovOQ-3" target="FHGDtoVXzbjsq7zCovOQ-0" edge="1">
          <mxGeometry width="160" relative="1" as="geometry">
            <mxPoint x="450" y="400" as="sourcePoint" />
            <mxPoint x="810" y="170" as="targetPoint" />
            <Array as="points">
              <mxPoint x="880" y="280" />
            </Array>
          </mxGeometry>
        </mxCell>
        <mxCell id="FHGDtoVXzbjsq7zCovOQ-11" value="hasSize" style="endArrow=open;endSize=12;dashed=1;html=1;rounded=1;exitX=0.75;exitY=0;exitDx=0;exitDy=0;entryX=0.25;entryY=1;entryDx=0;entryDy=0;labelBackgroundColor=none;strokeColor=#457B9D;fontColor=default;fontSize=14;" parent="WIyWlLk6GJQsqaUBKTNV-1" source="FHGDtoVXzbjsq7zCovOQ-5" target="FHGDtoVXzbjsq7zCovOQ-4" edge="1">
          <mxGeometry x="-0.5261" y="-1" width="160" relative="1" as="geometry">
            <mxPoint x="540" y="300" as="sourcePoint" />
            <mxPoint x="700" y="300" as="targetPoint" />
            <mxPoint as="offset" />
          </mxGeometry>
        </mxCell>
        <mxCell id="FHGDtoVXzbjsq7zCovOQ-12" value="livesIn" style="endArrow=open;endSize=12;dashed=1;html=1;rounded=1;exitX=0;exitY=0.5;exitDx=0;exitDy=0;entryX=1;entryY=1;entryDx=0;entryDy=0;labelBackgroundColor=none;strokeColor=#457B9D;fontColor=default;fontSize=14;" parent="WIyWlLk6GJQsqaUBKTNV-1" source="FHGDtoVXzbjsq7zCovOQ-5" target="FHGDtoVXzbjsq7zCovOQ-2" edge="1">
          <mxGeometry width="160" relative="1" as="geometry">
            <mxPoint x="550" y="310" as="sourcePoint" />
            <mxPoint x="710" y="310" as="targetPoint" />
          </mxGeometry>
        </mxCell>
        <mxCell id="FHGDtoVXzbjsq7zCovOQ-15" value="Humanoid" style="rounded=1;whiteSpace=wrap;html=1;labelBackgroundColor=none;fillColor=#A8DADC;strokeColor=#457B9D;fontColor=#1D3557;fontSize=14;" parent="WIyWlLk6GJQsqaUBKTNV-1" vertex="1">
          <mxGeometry x="-360.5" y="1048" width="100" height="20" as="geometry" />
        </mxCell>
        <mxCell id="FHGDtoVXzbjsq7zCovOQ-16" value="" style="endArrow=block;endSize=10;endFill=0;shadow=0;strokeWidth=1;rounded=1;curved=0;edgeStyle=elbowEdgeStyle;elbow=vertical;entryX=0.5;entryY=1;entryDx=0;entryDy=0;exitX=0.5;exitY=0;exitDx=0;exitDy=0;labelBackgroundColor=none;strokeColor=#457B9D;fontColor=default;fontSize=14;" parent="WIyWlLk6GJQsqaUBKTNV-1" source="FHGDtoVXzbjsq7zCovOQ-15" target="FHGDtoVXzbjsq7zCovOQ-5" edge="1">
          <mxGeometry width="160" relative="1" as="geometry">
            <mxPoint x="570" y="238" as="sourcePoint" />
            <mxPoint x="820" y="90" as="targetPoint" />
            <Array as="points">
              <mxPoint x="510" y="1000" />
            </Array>
          </mxGeometry>
        </mxCell>
        <mxCell id="FHGDtoVXzbjsq7zCovOQ-19" value="subclass of" style="text;html=1;align=center;verticalAlign=middle;whiteSpace=wrap;rounded=1;labelBackgroundColor=none;fontColor=#1D3557;fontSize=14;" parent="WIyWlLk6GJQsqaUBKTNV-1" vertex="1">
          <mxGeometry x="1370" y="155" width="70" height="28" as="geometry" />
        </mxCell>
        <mxCell id="FHGDtoVXzbjsq7zCovOQ-20" value="hasClass" style="endArrow=open;endSize=12;dashed=1;html=1;rounded=1;exitX=0.5;exitY=0;exitDx=0;exitDy=0;entryX=0.25;entryY=1;entryDx=0;entryDy=0;labelBackgroundColor=none;strokeColor=#457B9D;fontColor=default;fontSize=14;" parent="WIyWlLk6GJQsqaUBKTNV-1" source="FHGDtoVXzbjsq7zCovOQ-15" target="FHGDtoVXzbjsq7zCovOQ-1" edge="1">
          <mxGeometry x="-0.5122" width="160" relative="1" as="geometry">
            <mxPoint x="590" y="420" as="sourcePoint" />
            <mxPoint x="1000" y="420" as="targetPoint" />
            <mxPoint as="offset" />
          </mxGeometry>
        </mxCell>
        <mxCell id="mx6fACQu4inzdKoDhe1S-0" value="Aberration" style="rounded=1;whiteSpace=wrap;html=1;labelBackgroundColor=none;fillColor=#A8DADC;strokeColor=#457B9D;fontColor=#1D3557;fontSize=14;" parent="WIyWlLk6GJQsqaUBKTNV-1" vertex="1">
          <mxGeometry x="-200.5" y="1048" width="101" height="20" as="geometry" />
        </mxCell>
        <mxCell id="mx6fACQu4inzdKoDhe1S-1" value="Fiend" style="rounded=1;whiteSpace=wrap;html=1;labelBackgroundColor=none;fillColor=#A8DADC;strokeColor=#457B9D;fontColor=#1D3557;fontSize=14;" parent="WIyWlLk6GJQsqaUBKTNV-1" vertex="1">
          <mxGeometry x="919.5" y="1048" width="101" height="20" as="geometry" />
        </mxCell>
        <mxCell id="mx6fACQu4inzdKoDhe1S-2" value="Fey" style="rounded=1;whiteSpace=wrap;html=1;labelBackgroundColor=none;fillColor=#A8DADC;strokeColor=#457B9D;fontColor=#1D3557;fontSize=14;" parent="WIyWlLk6GJQsqaUBKTNV-1" vertex="1">
          <mxGeometry x="759.5" y="1048" width="101" height="20" as="geometry" />
        </mxCell>
        <mxCell id="mx6fACQu4inzdKoDhe1S-3" value="Elemental" style="rounded=1;whiteSpace=wrap;html=1;labelBackgroundColor=none;fillColor=#A8DADC;strokeColor=#457B9D;fontColor=#1D3557;fontSize=14;" parent="WIyWlLk6GJQsqaUBKTNV-1" vertex="1">
          <mxGeometry x="599.5" y="1048" width="100" height="20" as="geometry" />
        </mxCell>
        <mxCell id="mx6fACQu4inzdKoDhe1S-4" value="Construct" style="rounded=1;whiteSpace=wrap;html=1;labelBackgroundColor=none;fillColor=#A8DADC;strokeColor=#457B9D;fontColor=#1D3557;fontSize=14;" parent="WIyWlLk6GJQsqaUBKTNV-1" vertex="1">
          <mxGeometry x="280" y="1048" width="101" height="20" as="geometry" />
        </mxCell>
        <mxCell id="mx6fACQu4inzdKoDhe1S-5" value="Celestial" style="rounded=1;whiteSpace=wrap;html=1;labelBackgroundColor=none;fillColor=#A8DADC;strokeColor=#457B9D;fontColor=#1D3557;fontSize=14;" parent="WIyWlLk6GJQsqaUBKTNV-1" vertex="1">
          <mxGeometry x="119.5" y="1048" width="101" height="20" as="geometry" />
        </mxCell>
        <mxCell id="mx6fACQu4inzdKoDhe1S-6" value="Beast" style="rounded=1;whiteSpace=wrap;html=1;labelBackgroundColor=none;fillColor=#A8DADC;strokeColor=#457B9D;fontColor=#1D3557;fontSize=14;" parent="WIyWlLk6GJQsqaUBKTNV-1" vertex="1">
          <mxGeometry x="-40.5" y="1048" width="101" height="20" as="geometry" />
        </mxCell>
        <mxCell id="mx6fACQu4inzdKoDhe1S-7" value="Undead" style="rounded=1;whiteSpace=wrap;html=1;labelBackgroundColor=none;fillColor=#A8DADC;strokeColor=#457B9D;fontColor=#1D3557;fontSize=14;" parent="WIyWlLk6GJQsqaUBKTNV-1" vertex="1">
          <mxGeometry x="1879.5" y="1048" width="101" height="20" as="geometry" />
        </mxCell>
        <mxCell id="mx6fACQu4inzdKoDhe1S-8" value="Shapechanger" style="rounded=1;whiteSpace=wrap;html=1;labelBackgroundColor=none;fillColor=#A8DADC;strokeColor=#457B9D;fontColor=#1D3557;fontSize=14;" parent="WIyWlLk6GJQsqaUBKTNV-1" vertex="1">
          <mxGeometry x="1719.5" y="1048" width="101" height="20" as="geometry" />
        </mxCell>
        <mxCell id="mx6fACQu4inzdKoDhe1S-9" value="Plant" style="rounded=1;whiteSpace=wrap;html=1;labelBackgroundColor=none;fillColor=#A8DADC;strokeColor=#457B9D;fontColor=#1D3557;fontSize=14;" parent="WIyWlLk6GJQsqaUBKTNV-1" vertex="1">
          <mxGeometry x="1559.5" y="1048" width="101" height="20" as="geometry" />
        </mxCell>
        <mxCell id="mx6fACQu4inzdKoDhe1S-10" value="Ooze" style="rounded=1;whiteSpace=wrap;html=1;labelBackgroundColor=none;fillColor=#A8DADC;strokeColor=#457B9D;fontColor=#1D3557;fontSize=14;" parent="WIyWlLk6GJQsqaUBKTNV-1" vertex="1">
          <mxGeometry x="1399.5" y="1048" width="101" height="20" as="geometry" />
        </mxCell>
        <mxCell id="mx6fACQu4inzdKoDhe1S-11" value="Monstrosity" style="rounded=1;whiteSpace=wrap;html=1;labelBackgroundColor=none;fillColor=#A8DADC;strokeColor=#457B9D;fontColor=#1D3557;fontSize=14;" parent="WIyWlLk6GJQsqaUBKTNV-1" vertex="1">
          <mxGeometry x="1239.5" y="1048" width="101" height="20" as="geometry" />
        </mxCell>
        <mxCell id="mx6fACQu4inzdKoDhe1S-12" value="Giant" style="rounded=1;whiteSpace=wrap;html=1;labelBackgroundColor=none;fillColor=#A8DADC;strokeColor=#457B9D;fontColor=#1D3557;fontSize=14;" parent="WIyWlLk6GJQsqaUBKTNV-1" vertex="1">
          <mxGeometry x="1081.5" y="1048" width="99" height="20" as="geometry" />
        </mxCell>
        <mxCell id="mx6fACQu4inzdKoDhe1S-13" value="Dragon" style="rounded=1;whiteSpace=wrap;html=1;labelBackgroundColor=none;fillColor=#A8DADC;strokeColor=#457B9D;fontColor=#1D3557;fontSize=14;" parent="WIyWlLk6GJQsqaUBKTNV-1" vertex="1">
          <mxGeometry x="439.5" y="1048" width="101" height="20" as="geometry" />
        </mxCell>
        <mxCell id="mx6fACQu4inzdKoDhe1S-16" value="" style="endArrow=block;endSize=10;endFill=0;shadow=0;strokeWidth=1;rounded=1;curved=0;edgeStyle=elbowEdgeStyle;elbow=vertical;exitX=0.5;exitY=0;exitDx=0;exitDy=0;labelBackgroundColor=none;strokeColor=#457B9D;fontColor=default;entryX=0.5;entryY=1;entryDx=0;entryDy=0;fontSize=14;" parent="WIyWlLk6GJQsqaUBKTNV-1" source="mx6fACQu4inzdKoDhe1S-0" target="FHGDtoVXzbjsq7zCovOQ-5" edge="1">
          <mxGeometry width="160" relative="1" as="geometry">
            <mxPoint x="84" y="1010" as="sourcePoint" />
            <mxPoint x="320" y="890" as="targetPoint" />
            <Array as="points">
              <mxPoint x="90" y="1000" />
            </Array>
          </mxGeometry>
        </mxCell>
        <mxCell id="mx6fACQu4inzdKoDhe1S-17" value="" style="endArrow=block;endSize=10;endFill=0;shadow=0;strokeWidth=1;rounded=1;curved=0;edgeStyle=elbowEdgeStyle;elbow=vertical;exitX=0.5;exitY=0;exitDx=0;exitDy=0;labelBackgroundColor=none;strokeColor=#457B9D;fontColor=default;entryX=0.5;entryY=1;entryDx=0;entryDy=0;fontSize=14;" parent="WIyWlLk6GJQsqaUBKTNV-1" source="mx6fACQu4inzdKoDhe1S-6" target="FHGDtoVXzbjsq7zCovOQ-5" edge="1">
          <mxGeometry width="160" relative="1" as="geometry">
            <mxPoint x="94" y="1020" as="sourcePoint" />
            <mxPoint x="330" y="900" as="targetPoint" />
            <Array as="points">
              <mxPoint x="190" y="1000" />
            </Array>
          </mxGeometry>
        </mxCell>
        <mxCell id="mx6fACQu4inzdKoDhe1S-18" value="" style="endArrow=block;endSize=10;endFill=0;shadow=0;strokeWidth=1;rounded=1;curved=0;edgeStyle=elbowEdgeStyle;elbow=vertical;exitX=0.5;exitY=0;exitDx=0;exitDy=0;labelBackgroundColor=none;strokeColor=#457B9D;fontColor=default;entryX=0.5;entryY=1;entryDx=0;entryDy=0;fontSize=14;" parent="WIyWlLk6GJQsqaUBKTNV-1" source="mx6fACQu4inzdKoDhe1S-5" target="FHGDtoVXzbjsq7zCovOQ-5" edge="1">
          <mxGeometry width="160" relative="1" as="geometry">
            <mxPoint x="104" y="1030" as="sourcePoint" />
            <mxPoint x="340" y="910" as="targetPoint" />
            <Array as="points">
              <mxPoint x="260" y="1000" />
            </Array>
          </mxGeometry>
        </mxCell>
        <mxCell id="mx6fACQu4inzdKoDhe1S-19" value="" style="endArrow=block;endSize=10;endFill=0;shadow=0;strokeWidth=1;rounded=1;curved=0;edgeStyle=elbowEdgeStyle;elbow=vertical;exitX=0.5;exitY=0;exitDx=0;exitDy=0;labelBackgroundColor=none;strokeColor=#457B9D;fontColor=default;entryX=0.5;entryY=1;entryDx=0;entryDy=0;fontSize=14;" parent="WIyWlLk6GJQsqaUBKTNV-1" source="mx6fACQu4inzdKoDhe1S-4" target="FHGDtoVXzbjsq7zCovOQ-5" edge="1">
          <mxGeometry width="160" relative="1" as="geometry">
            <mxPoint x="114" y="1040" as="sourcePoint" />
            <mxPoint x="350" y="920" as="targetPoint" />
            <Array as="points">
              <mxPoint x="350" y="1000" />
            </Array>
          </mxGeometry>
        </mxCell>
        <mxCell id="mx6fACQu4inzdKoDhe1S-20" value="" style="endArrow=block;endSize=10;endFill=0;shadow=0;strokeWidth=1;rounded=1;curved=0;edgeStyle=elbowEdgeStyle;elbow=vertical;exitX=0.5;exitY=0;exitDx=0;exitDy=0;labelBackgroundColor=none;strokeColor=#457B9D;fontColor=default;entryX=0.5;entryY=1;entryDx=0;entryDy=0;fontSize=14;" parent="WIyWlLk6GJQsqaUBKTNV-1" source="mx6fACQu4inzdKoDhe1S-13" target="FHGDtoVXzbjsq7zCovOQ-5" edge="1">
          <mxGeometry width="160" relative="1" as="geometry">
            <mxPoint x="124" y="1050" as="sourcePoint" />
            <mxPoint x="360" y="930" as="targetPoint" />
            <Array as="points">
              <mxPoint x="510" y="1000" />
            </Array>
          </mxGeometry>
        </mxCell>
        <mxCell id="mx6fACQu4inzdKoDhe1S-21" value="" style="endArrow=block;endSize=10;endFill=0;shadow=0;strokeWidth=1;rounded=1;curved=0;edgeStyle=elbowEdgeStyle;elbow=vertical;exitX=0.5;exitY=0;exitDx=0;exitDy=0;labelBackgroundColor=none;strokeColor=#457B9D;fontColor=default;entryX=0.5;entryY=1;entryDx=0;entryDy=0;fontSize=14;" parent="WIyWlLk6GJQsqaUBKTNV-1" source="mx6fACQu4inzdKoDhe1S-2" target="FHGDtoVXzbjsq7zCovOQ-5" edge="1">
          <mxGeometry width="160" relative="1" as="geometry">
            <mxPoint x="870" y="1020" as="sourcePoint" />
            <mxPoint x="1106" y="900" as="targetPoint" />
            <Array as="points" />
          </mxGeometry>
        </mxCell>
        <mxCell id="mx6fACQu4inzdKoDhe1S-22" value="" style="endArrow=block;endSize=10;endFill=0;shadow=0;strokeWidth=1;rounded=1;curved=0;edgeStyle=elbowEdgeStyle;elbow=vertical;exitX=0.5;exitY=0;exitDx=0;exitDy=0;labelBackgroundColor=none;strokeColor=#457B9D;fontColor=default;entryX=0.5;entryY=1;entryDx=0;entryDy=0;fontSize=14;" parent="WIyWlLk6GJQsqaUBKTNV-1" source="mx6fACQu4inzdKoDhe1S-3" target="FHGDtoVXzbjsq7zCovOQ-5" edge="1">
          <mxGeometry width="160" relative="1" as="geometry">
            <mxPoint x="880" y="1030" as="sourcePoint" />
            <mxPoint x="1116" y="910" as="targetPoint" />
            <Array as="points">
              <mxPoint x="800" y="1000" />
            </Array>
          </mxGeometry>
        </mxCell>
        <mxCell id="mx6fACQu4inzdKoDhe1S-23" value="" style="endArrow=block;endSize=10;endFill=0;shadow=0;strokeWidth=1;rounded=1;curved=0;edgeStyle=elbowEdgeStyle;elbow=vertical;exitX=0.5;exitY=0;exitDx=0;exitDy=0;labelBackgroundColor=none;strokeColor=#457B9D;fontColor=default;entryX=0.5;entryY=1;entryDx=0;entryDy=0;fontSize=14;" parent="WIyWlLk6GJQsqaUBKTNV-1" source="mx6fACQu4inzdKoDhe1S-9" target="FHGDtoVXzbjsq7zCovOQ-5" edge="1">
          <mxGeometry width="160" relative="1" as="geometry">
            <mxPoint x="1140" y="1010" as="sourcePoint" />
            <mxPoint x="1376" y="890" as="targetPoint" />
            <Array as="points">
              <mxPoint x="1490" y="1000" />
            </Array>
          </mxGeometry>
        </mxCell>
        <mxCell id="mx6fACQu4inzdKoDhe1S-24" value="" style="endArrow=block;endSize=10;endFill=0;shadow=0;strokeWidth=1;rounded=1;curved=0;edgeStyle=elbowEdgeStyle;elbow=vertical;exitX=0.5;exitY=0;exitDx=0;exitDy=0;labelBackgroundColor=none;strokeColor=#457B9D;fontColor=default;entryX=0.5;entryY=1;entryDx=0;entryDy=0;fontSize=14;" parent="WIyWlLk6GJQsqaUBKTNV-1" source="mx6fACQu4inzdKoDhe1S-7" target="FHGDtoVXzbjsq7zCovOQ-5" edge="1">
          <mxGeometry width="160" relative="1" as="geometry">
            <mxPoint x="1370" y="970" as="sourcePoint" />
            <mxPoint x="1310" y="870" as="targetPoint" />
            <Array as="points">
              <mxPoint x="1620" y="1000" />
            </Array>
          </mxGeometry>
        </mxCell>
        <mxCell id="mx6fACQu4inzdKoDhe1S-25" value="" style="endArrow=block;endSize=10;endFill=0;shadow=0;strokeWidth=1;rounded=1;curved=0;edgeStyle=elbowEdgeStyle;elbow=vertical;exitX=0.5;exitY=0;exitDx=0;exitDy=0;labelBackgroundColor=none;strokeColor=#457B9D;fontColor=default;entryX=0.5;entryY=1;entryDx=0;entryDy=0;fontSize=14;" parent="WIyWlLk6GJQsqaUBKTNV-1" source="mx6fACQu4inzdKoDhe1S-8" target="FHGDtoVXzbjsq7zCovOQ-5" edge="1">
          <mxGeometry width="160" relative="1" as="geometry">
            <mxPoint x="1424.5" y="980" as="sourcePoint" />
            <mxPoint x="1340" y="860" as="targetPoint" />
            <Array as="points">
              <mxPoint x="1550" y="1000" />
            </Array>
          </mxGeometry>
        </mxCell>
        <mxCell id="mx6fACQu4inzdKoDhe1S-26" value="" style="endArrow=block;endSize=10;endFill=0;shadow=0;strokeWidth=1;rounded=1;curved=0;edgeStyle=elbowEdgeStyle;elbow=vertical;labelBackgroundColor=none;strokeColor=#457B9D;fontColor=default;entryX=0.5;entryY=1;entryDx=0;entryDy=0;fontSize=14;" parent="WIyWlLk6GJQsqaUBKTNV-1" source="mx6fACQu4inzdKoDhe1S-10" target="FHGDtoVXzbjsq7zCovOQ-5" edge="1">
          <mxGeometry width="160" relative="1" as="geometry">
            <mxPoint x="920" y="1070" as="sourcePoint" />
            <mxPoint x="1156" y="950" as="targetPoint" />
            <Array as="points">
              <mxPoint x="1040" y="1000" />
            </Array>
          </mxGeometry>
        </mxCell>
        <mxCell id="mx6fACQu4inzdKoDhe1S-27" value="" style="endArrow=block;endSize=10;endFill=0;shadow=0;strokeWidth=1;rounded=1;curved=0;edgeStyle=elbowEdgeStyle;elbow=vertical;exitX=0.5;exitY=0;exitDx=0;exitDy=0;labelBackgroundColor=none;strokeColor=#457B9D;fontColor=default;entryX=0.5;entryY=1;entryDx=0;entryDy=0;fontSize=14;" parent="WIyWlLk6GJQsqaUBKTNV-1" source="mx6fACQu4inzdKoDhe1S-11" target="FHGDtoVXzbjsq7zCovOQ-5" edge="1">
          <mxGeometry width="160" relative="1" as="geometry">
            <mxPoint x="930" y="1080" as="sourcePoint" />
            <mxPoint x="1166" y="960" as="targetPoint" />
            <Array as="points">
              <mxPoint x="1230" y="1000" />
            </Array>
          </mxGeometry>
        </mxCell>
        <mxCell id="mx6fACQu4inzdKoDhe1S-28" value="" style="endArrow=block;endSize=10;endFill=0;shadow=0;strokeWidth=1;rounded=1;curved=0;edgeStyle=elbowEdgeStyle;elbow=vertical;exitX=0.5;exitY=0;exitDx=0;exitDy=0;labelBackgroundColor=none;strokeColor=#457B9D;fontColor=default;entryX=0.5;entryY=1;entryDx=0;entryDy=0;fontSize=14;" parent="WIyWlLk6GJQsqaUBKTNV-1" source="mx6fACQu4inzdKoDhe1S-12" target="FHGDtoVXzbjsq7zCovOQ-5" edge="1">
          <mxGeometry width="160" relative="1" as="geometry">
            <mxPoint x="940" y="1090" as="sourcePoint" />
            <mxPoint x="1176" y="970" as="targetPoint" />
            <Array as="points">
              <mxPoint x="1150" y="1000" />
            </Array>
          </mxGeometry>
        </mxCell>
        <mxCell id="mx6fACQu4inzdKoDhe1S-29" value="" style="endArrow=block;endSize=10;endFill=0;shadow=0;strokeWidth=1;rounded=1;curved=0;edgeStyle=elbowEdgeStyle;elbow=vertical;exitX=0.5;exitY=0;exitDx=0;exitDy=0;labelBackgroundColor=none;strokeColor=#457B9D;fontColor=default;entryX=0.5;entryY=1;entryDx=0;entryDy=0;fontSize=14;" parent="WIyWlLk6GJQsqaUBKTNV-1" source="mx6fACQu4inzdKoDhe1S-1" target="FHGDtoVXzbjsq7zCovOQ-5" edge="1">
          <mxGeometry width="160" relative="1" as="geometry">
            <mxPoint x="950" y="1100" as="sourcePoint" />
            <mxPoint x="1186" y="980" as="targetPoint" />
            <Array as="points">
              <mxPoint x="880" y="1000" />
            </Array>
          </mxGeometry>
        </mxCell>
        <mxCell id="mx6fACQu4inzdKoDhe1S-30" value="Archmage" style="rounded=1;whiteSpace=wrap;html=1;labelBackgroundColor=none;fillColor=#A8DADC;strokeColor=#457B9D;fontColor=#1D3557;fontSize=14;" parent="WIyWlLk6GJQsqaUBKTNV-1" vertex="1">
          <mxGeometry x="-139.5" y="370" width="99" height="20" as="geometry" />
        </mxCell>
        <mxCell id="mx6fACQu4inzdKoDhe1S-31" value="NeutralGood" style="rounded=1;whiteSpace=wrap;html=1;labelBackgroundColor=none;fillColor=#A8DADC;strokeColor=#457B9D;fontColor=#1D3557;fontSize=14;" parent="WIyWlLk6GJQsqaUBKTNV-1" vertex="1">
          <mxGeometry x="1360" y="440" width="99" height="20" as="geometry" />
        </mxCell>
        <mxCell id="mx6fACQu4inzdKoDhe1S-32" value="Unaligned" style="rounded=1;whiteSpace=wrap;html=1;labelBackgroundColor=none;fillColor=#A8DADC;strokeColor=#457B9D;fontColor=#1D3557;fontSize=14;" parent="WIyWlLk6GJQsqaUBKTNV-1" vertex="1">
          <mxGeometry x="1319" y="400" width="99" height="20" as="geometry" />
        </mxCell>
        <mxCell id="mx6fACQu4inzdKoDhe1S-38" value="LawfulNeutral" style="rounded=1;whiteSpace=wrap;html=1;labelBackgroundColor=none;fillColor=#A8DADC;strokeColor=#457B9D;fontColor=#1D3557;fontSize=14;" parent="WIyWlLk6GJQsqaUBKTNV-1" vertex="1">
          <mxGeometry x="1360" y="550" width="99" height="20" as="geometry" />
        </mxCell>
        <mxCell id="mx6fACQu4inzdKoDhe1S-39" value="Neutral" style="rounded=1;whiteSpace=wrap;html=1;labelBackgroundColor=none;fillColor=#A8DADC;strokeColor=#457B9D;fontColor=#1D3557;fontSize=14;" parent="WIyWlLk6GJQsqaUBKTNV-1" vertex="1">
          <mxGeometry x="1440" y="520" width="99" height="20" as="geometry" />
        </mxCell>
        <mxCell id="mx6fACQu4inzdKoDhe1S-40" value="NeutralEvil" style="rounded=1;whiteSpace=wrap;html=1;labelBackgroundColor=none;fillColor=#A8DADC;strokeColor=#457B9D;fontColor=#1D3557;fontSize=14;" parent="WIyWlLk6GJQsqaUBKTNV-1" vertex="1">
          <mxGeometry x="1399.5" y="480" width="99" height="20" as="geometry" />
        </mxCell>
        <mxCell id="mx6fACQu4inzdKoDhe1S-44" value="hasAlignment" style="endArrow=open;endSize=12;dashed=1;html=1;rounded=1;exitX=1;exitY=0;exitDx=0;exitDy=0;entryX=0.5;entryY=1;entryDx=0;entryDy=0;labelBackgroundColor=none;strokeColor=#457B9D;fontColor=default;fontSize=14;" parent="WIyWlLk6GJQsqaUBKTNV-1" source="FHGDtoVXzbjsq7zCovOQ-5" target="FHGDtoVXzbjsq7zCovOQ-3" edge="1">
          <mxGeometry x="-0.381" y="-20" width="160" relative="1" as="geometry">
            <mxPoint x="760" y="920" as="sourcePoint" />
            <mxPoint x="490" y="520" as="targetPoint" />
            <mxPoint as="offset" />
          </mxGeometry>
        </mxCell>
        <mxCell id="mx6fACQu4inzdKoDhe1S-46" value="" style="endArrow=block;endSize=10;endFill=0;shadow=0;strokeWidth=1;rounded=1;edgeStyle=orthogonalEdgeStyle;elbow=vertical;exitX=0.5;exitY=0;exitDx=0;exitDy=0;labelBackgroundColor=none;strokeColor=#457B9D;fontColor=default;entryX=0;entryY=0.5;entryDx=0;entryDy=0;fontSize=14;" parent="WIyWlLk6GJQsqaUBKTNV-1" source="mx6fACQu4inzdKoDhe1S-30" target="FHGDtoVXzbjsq7zCovOQ-1" edge="1">
          <mxGeometry width="160" relative="1" as="geometry">
            <mxPoint x="-259.99999999999994" y="235" as="sourcePoint" />
            <mxPoint x="-259.99999999999994" y="135" as="targetPoint" />
          </mxGeometry>
        </mxCell>
        <mxCell id="mx6fACQu4inzdKoDhe1S-47" value="" style="endArrow=block;endSize=10;endFill=0;shadow=0;strokeWidth=1;rounded=1;curved=0;edgeStyle=elbowEdgeStyle;elbow=vertical;exitX=0.25;exitY=1;exitDx=0;exitDy=0;labelBackgroundColor=none;strokeColor=#457B9D;fontColor=default;entryX=1;entryY=0.5;entryDx=0;entryDy=0;fontSize=14;" parent="WIyWlLk6GJQsqaUBKTNV-1" source="mx6fACQu4inzdKoDhe1S-31" target="FHGDtoVXzbjsq7zCovOQ-3" edge="1">
          <mxGeometry width="160" relative="1" as="geometry">
            <mxPoint x="1538.5" y="700" as="sourcePoint" />
            <mxPoint x="1538.5" y="600" as="targetPoint" />
            <Array as="points">
              <mxPoint x="1340" y="530" />
            </Array>
          </mxGeometry>
        </mxCell>
        <mxCell id="mx6fACQu4inzdKoDhe1S-48" value="" style="endArrow=block;endSize=10;endFill=0;shadow=0;strokeWidth=1;rounded=1;curved=0;edgeStyle=elbowEdgeStyle;elbow=vertical;labelBackgroundColor=none;strokeColor=#457B9D;fontColor=default;entryX=1;entryY=0.5;entryDx=0;entryDy=0;exitX=0.25;exitY=1;exitDx=0;exitDy=0;fontSize=14;" parent="WIyWlLk6GJQsqaUBKTNV-1" source="mx6fACQu4inzdKoDhe1S-40" target="FHGDtoVXzbjsq7zCovOQ-3" edge="1">
          <mxGeometry width="160" relative="1" as="geometry">
            <mxPoint x="1480" y="670" as="sourcePoint" />
            <mxPoint x="1548.5" y="610" as="targetPoint" />
            <Array as="points">
              <mxPoint x="1360" y="530" />
            </Array>
          </mxGeometry>
        </mxCell>
        <mxCell id="mx6fACQu4inzdKoDhe1S-49" value="" style="endArrow=block;endSize=10;endFill=0;shadow=0;strokeWidth=1;rounded=1;elbow=vertical;labelBackgroundColor=none;strokeColor=#457B9D;fontColor=default;entryX=1;entryY=0.5;entryDx=0;entryDy=0;exitX=0;exitY=0.5;exitDx=0;exitDy=0;edgeStyle=orthogonalEdgeStyle;fontSize=14;" parent="WIyWlLk6GJQsqaUBKTNV-1" source="mx6fACQu4inzdKoDhe1S-39" target="FHGDtoVXzbjsq7zCovOQ-3" edge="1">
          <mxGeometry width="160" relative="1" as="geometry">
            <mxPoint x="1450" y="510" as="sourcePoint" />
            <mxPoint x="1558.5" y="620" as="targetPoint" />
          </mxGeometry>
        </mxCell>
        <mxCell id="mx6fACQu4inzdKoDhe1S-50" value="" style="endArrow=block;endSize=10;endFill=0;shadow=0;strokeWidth=1;rounded=1;curved=0;edgeStyle=elbowEdgeStyle;elbow=vertical;exitX=0.25;exitY=0;exitDx=0;exitDy=0;labelBackgroundColor=none;strokeColor=#457B9D;fontColor=default;entryX=1;entryY=0.5;entryDx=0;entryDy=0;fontSize=14;" parent="WIyWlLk6GJQsqaUBKTNV-1" source="mx6fACQu4inzdKoDhe1S-33" target="FHGDtoVXzbjsq7zCovOQ-3" edge="1">
          <mxGeometry width="160" relative="1" as="geometry">
            <mxPoint x="1568.5" y="730" as="sourcePoint" />
            <mxPoint x="1568.5" y="630" as="targetPoint" />
            <Array as="points">
              <mxPoint x="1390" y="530" />
            </Array>
          </mxGeometry>
        </mxCell>
        <mxCell id="mx6fACQu4inzdKoDhe1S-51" value="" style="endArrow=block;endSize=10;endFill=0;shadow=0;strokeWidth=1;rounded=1;elbow=vertical;exitX=0.25;exitY=0;exitDx=0;exitDy=0;labelBackgroundColor=none;strokeColor=#457B9D;fontColor=default;entryX=1;entryY=0.5;entryDx=0;entryDy=0;edgeStyle=orthogonalEdgeStyle;fontSize=14;" parent="WIyWlLk6GJQsqaUBKTNV-1" source="mx6fACQu4inzdKoDhe1S-38" target="FHGDtoVXzbjsq7zCovOQ-3" edge="1">
          <mxGeometry width="160" relative="1" as="geometry">
            <mxPoint x="1578.5" y="740" as="sourcePoint" />
            <mxPoint x="1578.5" y="640" as="targetPoint" />
          </mxGeometry>
        </mxCell>
        <mxCell id="mx6fACQu4inzdKoDhe1S-57" value="" style="endArrow=block;endSize=10;endFill=0;shadow=0;strokeWidth=1;rounded=1;curved=0;edgeStyle=elbowEdgeStyle;elbow=vertical;exitX=0.25;exitY=1;exitDx=0;exitDy=0;labelBackgroundColor=none;strokeColor=#457B9D;fontColor=default;entryX=1;entryY=0.5;entryDx=0;entryDy=0;fontSize=14;" parent="WIyWlLk6GJQsqaUBKTNV-1" source="mx6fACQu4inzdKoDhe1S-32" target="FHGDtoVXzbjsq7zCovOQ-3" edge="1">
          <mxGeometry width="160" relative="1" as="geometry">
            <mxPoint x="1350" y="570" as="sourcePoint" />
            <mxPoint x="1350" y="470" as="targetPoint" />
            <Array as="points">
              <mxPoint x="1330" y="530" />
            </Array>
          </mxGeometry>
        </mxCell>
        <mxCell id="mx6fACQu4inzdKoDhe1S-59" value="" style="endArrow=block;endSize=10;endFill=0;shadow=0;strokeWidth=1;rounded=1;curved=0;edgeStyle=elbowEdgeStyle;elbow=vertical;exitX=0.75;exitY=0;exitDx=0;exitDy=0;labelBackgroundColor=none;strokeColor=#457B9D;fontColor=default;entryX=0.75;entryY=1;entryDx=0;entryDy=0;fontSize=14;" parent="WIyWlLk6GJQsqaUBKTNV-1" source="mx6fACQu4inzdKoDhe1S-35" target="FHGDtoVXzbjsq7zCovOQ-3" edge="1">
          <mxGeometry width="160" relative="1" as="geometry">
            <mxPoint x="1089.8500000000001" y="560" as="sourcePoint" />
            <mxPoint x="1089.8500000000001" y="460" as="targetPoint" />
            <Array as="points">
              <mxPoint x="1220" y="620" />
            </Array>
          </mxGeometry>
        </mxCell>
        <mxCell id="mx6fACQu4inzdKoDhe1S-60" value="" style="endArrow=block;endSize=10;endFill=0;shadow=0;strokeWidth=1;rounded=1;curved=0;edgeStyle=elbowEdgeStyle;elbow=vertical;exitX=0.5;exitY=0;exitDx=0;exitDy=0;labelBackgroundColor=none;strokeColor=#457B9D;fontColor=default;entryX=0.75;entryY=1;entryDx=0;entryDy=0;fontSize=14;" parent="WIyWlLk6GJQsqaUBKTNV-1" source="mx6fACQu4inzdKoDhe1S-36" target="FHGDtoVXzbjsq7zCovOQ-3" edge="1">
          <mxGeometry width="160" relative="1" as="geometry">
            <mxPoint x="1099.8500000000001" y="570" as="sourcePoint" />
            <mxPoint x="1210" y="630" as="targetPoint" />
            <Array as="points">
              <mxPoint x="1250" y="620" />
            </Array>
          </mxGeometry>
        </mxCell>
        <mxCell id="mx6fACQu4inzdKoDhe1S-61" value="" style="endArrow=block;endSize=10;endFill=0;shadow=0;strokeWidth=1;rounded=1;curved=0;edgeStyle=elbowEdgeStyle;elbow=vertical;exitX=0.25;exitY=0;exitDx=0;exitDy=0;labelBackgroundColor=none;strokeColor=#457B9D;fontColor=default;entryX=0.75;entryY=1;entryDx=0;entryDy=0;fontSize=14;" parent="WIyWlLk6GJQsqaUBKTNV-1" source="mx6fACQu4inzdKoDhe1S-37" target="FHGDtoVXzbjsq7zCovOQ-3" edge="1">
          <mxGeometry width="160" relative="1" as="geometry">
            <mxPoint x="1109.8500000000001" y="580" as="sourcePoint" />
            <mxPoint x="1109.8500000000001" y="480" as="targetPoint" />
            <Array as="points" />
          </mxGeometry>
        </mxCell>
        <mxCell id="mx6fACQu4inzdKoDhe1S-62" value="" style="endArrow=block;endSize=10;endFill=0;shadow=0;strokeWidth=1;rounded=1;curved=0;edgeStyle=elbowEdgeStyle;elbow=vertical;exitX=0.25;exitY=0;exitDx=0;exitDy=0;labelBackgroundColor=none;strokeColor=#457B9D;fontColor=default;entryX=1;entryY=0.5;entryDx=0;entryDy=0;fontSize=14;" parent="WIyWlLk6GJQsqaUBKTNV-1" source="mx6fACQu4inzdKoDhe1S-34" target="FHGDtoVXzbjsq7zCovOQ-3" edge="1">
          <mxGeometry width="160" relative="1" as="geometry">
            <mxPoint x="1119.8500000000001" y="590" as="sourcePoint" />
            <mxPoint x="1119.8500000000001" y="490" as="targetPoint" />
            <Array as="points">
              <mxPoint x="1340" y="530" />
            </Array>
          </mxGeometry>
        </mxCell>
        <mxCell id="FHGDtoVXzbjsq7zCovOQ-3" value="Alignment" style="rounded=1;whiteSpace=wrap;html=1;labelBackgroundColor=none;fillColor=#A8DADC;strokeColor=#457B9D;fontColor=#1D3557;fontSize=18;" parent="WIyWlLk6GJQsqaUBKTNV-1" vertex="1">
          <mxGeometry x="1140" y="500" width="120" height="60" as="geometry" />
        </mxCell>
        <mxCell id="mx6fACQu4inzdKoDhe1S-33" value="LawfulGood" style="rounded=1;whiteSpace=wrap;html=1;labelBackgroundColor=none;fillColor=#A8DADC;strokeColor=#457B9D;fontColor=#1D3557;fontSize=14;" parent="WIyWlLk6GJQsqaUBKTNV-1" vertex="1">
          <mxGeometry x="1319" y="590" width="99" height="20" as="geometry" />
        </mxCell>
        <mxCell id="mx6fACQu4inzdKoDhe1S-34" value="LawfulEvil" style="rounded=1;whiteSpace=wrap;html=1;labelBackgroundColor=none;fillColor=#A8DADC;strokeColor=#457B9D;fontColor=#1D3557;fontSize=14;" parent="WIyWlLk6GJQsqaUBKTNV-1" vertex="1">
          <mxGeometry x="1280" y="630" width="99" height="20" as="geometry" />
        </mxCell>
        <mxCell id="mx6fACQu4inzdKoDhe1S-35" value="ChaoticEvil" style="rounded=1;whiteSpace=wrap;html=1;labelBackgroundColor=none;fillColor=#A8DADC;strokeColor=#457B9D;fontColor=#1D3557;fontSize=14;" parent="WIyWlLk6GJQsqaUBKTNV-1" vertex="1">
          <mxGeometry x="1070" y="670" width="99" height="20" as="geometry" />
        </mxCell>
        <mxCell id="mx6fACQu4inzdKoDhe1S-36" value="ChaoticGood" style="rounded=1;whiteSpace=wrap;html=1;labelBackgroundColor=none;fillColor=#A8DADC;strokeColor=#457B9D;fontColor=#1D3557;fontSize=14;" parent="WIyWlLk6GJQsqaUBKTNV-1" vertex="1">
          <mxGeometry x="1140" y="710" width="99" height="20" as="geometry" />
        </mxCell>
        <mxCell id="mx6fACQu4inzdKoDhe1S-37" value="ChaoticNeutral" style="rounded=1;whiteSpace=wrap;html=1;labelBackgroundColor=none;fillColor=#A8DADC;strokeColor=#457B9D;fontColor=#1D3557;fontSize=14;" parent="WIyWlLk6GJQsqaUBKTNV-1" vertex="1">
          <mxGeometry x="1220" y="670" width="99" height="20" as="geometry" />
        </mxCell>
        <mxCell id="mx6fACQu4inzdKoDhe1S-64" value="Gargantuan" style="rounded=1;whiteSpace=wrap;html=1;labelBackgroundColor=none;fillColor=#A8DADC;strokeColor=#457B9D;fontColor=#1D3557;fontSize=14;" parent="WIyWlLk6GJQsqaUBKTNV-1" vertex="1">
          <mxGeometry x="1650" y="50" width="99" height="20" as="geometry" />
        </mxCell>
        <mxCell id="mx6fACQu4inzdKoDhe1S-65" value="" style="endArrow=block;endSize=10;endFill=0;shadow=0;strokeWidth=1;rounded=1;curved=0;edgeStyle=elbowEdgeStyle;elbow=vertical;labelBackgroundColor=none;strokeColor=#457B9D;fontColor=default;entryX=1;entryY=0.5;entryDx=0;entryDy=0;exitX=0.25;exitY=1;exitDx=0;exitDy=0;fontSize=14;" parent="WIyWlLk6GJQsqaUBKTNV-1" source="mx6fACQu4inzdKoDhe1S-64" target="FHGDtoVXzbjsq7zCovOQ-4" edge="1">
          <mxGeometry width="160" relative="1" as="geometry">
            <mxPoint x="1440" y="70" as="sourcePoint" />
            <mxPoint x="1340" y="75" as="targetPoint" />
            <Array as="points">
              <mxPoint x="1660" y="185" />
            </Array>
          </mxGeometry>
        </mxCell>
        <mxCell id="mx6fACQu4inzdKoDhe1S-66" value="Huge" style="rounded=1;whiteSpace=wrap;html=1;labelBackgroundColor=none;fillColor=#A8DADC;strokeColor=#457B9D;fontColor=#1D3557;fontSize=14;" parent="WIyWlLk6GJQsqaUBKTNV-1" vertex="1">
          <mxGeometry x="1690" y="100" width="99" height="20" as="geometry" />
        </mxCell>
        <mxCell id="mx6fACQu4inzdKoDhe1S-67" value="Large" style="rounded=1;whiteSpace=wrap;html=1;labelBackgroundColor=none;fillColor=#A8DADC;strokeColor=#457B9D;fontColor=#1D3557;fontSize=14;" parent="WIyWlLk6GJQsqaUBKTNV-1" vertex="1">
          <mxGeometry x="1730.5" y="150" width="99" height="20" as="geometry" />
        </mxCell>
        <mxCell id="mx6fACQu4inzdKoDhe1S-68" value="Medium" style="rounded=1;whiteSpace=wrap;html=1;labelBackgroundColor=none;fillColor=#A8DADC;strokeColor=#457B9D;fontColor=#1D3557;fontSize=14;" parent="WIyWlLk6GJQsqaUBKTNV-1" vertex="1">
          <mxGeometry x="1731.5" y="200" width="99" height="20" as="geometry" />
        </mxCell>
        <mxCell id="mx6fACQu4inzdKoDhe1S-69" value="Small" style="rounded=1;whiteSpace=wrap;html=1;labelBackgroundColor=none;fillColor=#A8DADC;strokeColor=#457B9D;fontColor=#1D3557;fontSize=14;" parent="WIyWlLk6GJQsqaUBKTNV-1" vertex="1">
          <mxGeometry x="1690" y="250" width="99" height="20" as="geometry" />
        </mxCell>
        <mxCell id="mx6fACQu4inzdKoDhe1S-70" value="Tiny" style="rounded=1;whiteSpace=wrap;html=1;labelBackgroundColor=none;fillColor=#A8DADC;strokeColor=#457B9D;fontColor=#1D3557;fontSize=14;" parent="WIyWlLk6GJQsqaUBKTNV-1" vertex="1">
          <mxGeometry x="1650" y="300" width="99" height="20" as="geometry" />
        </mxCell>
        <mxCell id="mx6fACQu4inzdKoDhe1S-71" value="" style="endArrow=block;endSize=10;endFill=0;shadow=0;strokeWidth=1;rounded=1;curved=0;edgeStyle=elbowEdgeStyle;elbow=vertical;labelBackgroundColor=none;strokeColor=#457B9D;fontColor=default;exitX=0.25;exitY=1;exitDx=0;exitDy=0;entryX=1;entryY=0.5;entryDx=0;entryDy=0;fontSize=14;" parent="WIyWlLk6GJQsqaUBKTNV-1" source="mx6fACQu4inzdKoDhe1S-66" target="FHGDtoVXzbjsq7zCovOQ-4" edge="1">
          <mxGeometry width="160" relative="1" as="geometry">
            <mxPoint x="1450" y="80" as="sourcePoint" />
            <mxPoint x="1350" y="85" as="targetPoint" />
            <Array as="points">
              <mxPoint x="1660" y="185" />
            </Array>
          </mxGeometry>
        </mxCell>
        <mxCell id="mx6fACQu4inzdKoDhe1S-72" value="" style="endArrow=block;endSize=10;endFill=0;shadow=0;strokeWidth=1;rounded=1;curved=0;edgeStyle=elbowEdgeStyle;elbow=vertical;labelBackgroundColor=none;strokeColor=#457B9D;fontColor=default;entryX=1;entryY=0.5;entryDx=0;entryDy=0;exitX=0.25;exitY=1;exitDx=0;exitDy=0;fontSize=14;" parent="WIyWlLk6GJQsqaUBKTNV-1" source="mx6fACQu4inzdKoDhe1S-67" target="FHGDtoVXzbjsq7zCovOQ-4" edge="1">
          <mxGeometry width="160" relative="1" as="geometry">
            <mxPoint x="1460" y="90" as="sourcePoint" />
            <mxPoint x="1360" y="95" as="targetPoint" />
            <Array as="points">
              <mxPoint x="1750" y="185" />
            </Array>
          </mxGeometry>
        </mxCell>
        <mxCell id="mx6fACQu4inzdKoDhe1S-73" value="" style="endArrow=block;endSize=10;endFill=0;shadow=0;strokeWidth=1;rounded=1;curved=0;edgeStyle=elbowEdgeStyle;elbow=vertical;labelBackgroundColor=none;strokeColor=#457B9D;fontColor=default;entryX=1;entryY=0.5;entryDx=0;entryDy=0;exitX=0.25;exitY=0;exitDx=0;exitDy=0;fontSize=14;" parent="WIyWlLk6GJQsqaUBKTNV-1" source="mx6fACQu4inzdKoDhe1S-68" target="FHGDtoVXzbjsq7zCovOQ-4" edge="1">
          <mxGeometry width="160" relative="1" as="geometry">
            <mxPoint x="1470" y="100" as="sourcePoint" />
            <mxPoint x="1370" y="105" as="targetPoint" />
            <Array as="points">
              <mxPoint x="1680" y="185" />
            </Array>
          </mxGeometry>
        </mxCell>
        <mxCell id="mx6fACQu4inzdKoDhe1S-74" value="" style="endArrow=block;endSize=10;endFill=0;shadow=0;strokeWidth=1;rounded=1;curved=0;edgeStyle=elbowEdgeStyle;elbow=vertical;labelBackgroundColor=none;strokeColor=#457B9D;fontColor=default;entryX=1;entryY=0.5;entryDx=0;entryDy=0;exitX=0.25;exitY=0;exitDx=0;exitDy=0;fontSize=14;" parent="WIyWlLk6GJQsqaUBKTNV-1" source="mx6fACQu4inzdKoDhe1S-69" target="FHGDtoVXzbjsq7zCovOQ-4" edge="1">
          <mxGeometry width="160" relative="1" as="geometry">
            <mxPoint x="1480" y="110" as="sourcePoint" />
            <mxPoint x="1550" y="125" as="targetPoint" />
            <Array as="points">
              <mxPoint x="1660" y="185" />
            </Array>
          </mxGeometry>
        </mxCell>
        <mxCell id="mx6fACQu4inzdKoDhe1S-75" value="" style="endArrow=block;endSize=10;endFill=0;shadow=0;strokeWidth=1;rounded=1;curved=0;edgeStyle=elbowEdgeStyle;elbow=vertical;labelBackgroundColor=none;strokeColor=#457B9D;fontColor=default;exitX=0.25;exitY=0;exitDx=0;exitDy=0;entryX=1;entryY=0.5;entryDx=0;entryDy=0;fontSize=14;" parent="WIyWlLk6GJQsqaUBKTNV-1" source="mx6fACQu4inzdKoDhe1S-70" target="FHGDtoVXzbjsq7zCovOQ-4" edge="1">
          <mxGeometry width="160" relative="1" as="geometry">
            <mxPoint x="1490" y="120" as="sourcePoint" />
            <mxPoint x="1390" y="125" as="targetPoint" />
            <Array as="points">
              <mxPoint x="1640" y="185" />
            </Array>
          </mxGeometry>
        </mxCell>
        <mxCell id="mx6fACQu4inzdKoDhe1S-76" value="Urban" style="rounded=1;whiteSpace=wrap;html=1;labelBackgroundColor=none;fillColor=#A8DADC;strokeColor=#457B9D;fontColor=#1D3557;fontSize=14;" parent="WIyWlLk6GJQsqaUBKTNV-1" vertex="1">
          <mxGeometry x="489" y="600" width="99" height="20" as="geometry" />
        </mxCell>
        <mxCell id="mx6fACQu4inzdKoDhe1S-77" value="" style="endArrow=block;endSize=10;endFill=0;shadow=0;strokeWidth=1;rounded=1;edgeStyle=orthogonalEdgeStyle;elbow=vertical;exitX=0.75;exitY=1;exitDx=0;exitDy=0;labelBackgroundColor=none;strokeColor=#457B9D;fontColor=default;entryX=0;entryY=0.5;entryDx=0;entryDy=0;fontSize=14;" parent="WIyWlLk6GJQsqaUBKTNV-1" source="mx6fACQu4inzdKoDhe1S-86" target="FHGDtoVXzbjsq7zCovOQ-2" edge="1">
          <mxGeometry width="160" relative="1" as="geometry">
            <mxPoint x="70.94000000000005" y="785" as="sourcePoint" />
            <mxPoint x="70.94000000000005" y="685" as="targetPoint" />
          </mxGeometry>
        </mxCell>
        <mxCell id="mx6fACQu4inzdKoDhe1S-82" value="Hill" style="rounded=1;whiteSpace=wrap;html=1;labelBackgroundColor=none;fillColor=#A8DADC;strokeColor=#457B9D;fontColor=#1D3557;fontSize=14;" parent="WIyWlLk6GJQsqaUBKTNV-1" vertex="1">
          <mxGeometry x="140" y="600" width="99" height="20" as="geometry" />
        </mxCell>
        <mxCell id="mx6fACQu4inzdKoDhe1S-83" value="Underwater" style="rounded=1;whiteSpace=wrap;html=1;labelBackgroundColor=none;fillColor=#A8DADC;strokeColor=#457B9D;fontColor=#1D3557;fontSize=14;" parent="WIyWlLk6GJQsqaUBKTNV-1" vertex="1">
          <mxGeometry x="450" y="650" width="99" height="20" as="geometry" />
        </mxCell>
        <mxCell id="mx6fACQu4inzdKoDhe1S-84" value="Underdark" style="rounded=1;whiteSpace=wrap;html=1;labelBackgroundColor=none;fillColor=#A8DADC;strokeColor=#457B9D;fontColor=#1D3557;fontSize=14;" parent="WIyWlLk6GJQsqaUBKTNV-1" vertex="1">
          <mxGeometry x="390" y="700" width="99" height="20" as="geometry" />
        </mxCell>
        <mxCell id="mx6fACQu4inzdKoDhe1S-85" value="Mountain" style="rounded=1;whiteSpace=wrap;html=1;labelBackgroundColor=none;fillColor=#A8DADC;strokeColor=#457B9D;fontColor=#1D3557;fontSize=14;" parent="WIyWlLk6GJQsqaUBKTNV-1" vertex="1">
          <mxGeometry x="200" y="650" width="99" height="20" as="geometry" />
        </mxCell>
        <mxCell id="mx6fACQu4inzdKoDhe1S-86" value="Arctic" style="rounded=1;whiteSpace=wrap;html=1;labelBackgroundColor=none;fillColor=#A8DADC;strokeColor=#457B9D;fontColor=#1D3557;fontSize=14;" parent="WIyWlLk6GJQsqaUBKTNV-1" vertex="1">
          <mxGeometry x="260" y="350" width="99" height="20" as="geometry" />
        </mxCell>
        <mxCell id="mx6fACQu4inzdKoDhe1S-87" value="Forest" style="rounded=1;whiteSpace=wrap;html=1;labelBackgroundColor=none;fillColor=#A8DADC;strokeColor=#457B9D;fontColor=#1D3557;fontSize=14;" parent="WIyWlLk6GJQsqaUBKTNV-1" vertex="1">
          <mxGeometry x="101" y="500" width="99" height="20" as="geometry" />
        </mxCell>
        <mxCell id="mx6fACQu4inzdKoDhe1S-88" value="Grassland" style="rounded=1;whiteSpace=wrap;html=1;labelBackgroundColor=none;fillColor=#A8DADC;strokeColor=#457B9D;fontColor=#1D3557;fontSize=14;" parent="WIyWlLk6GJQsqaUBKTNV-1" vertex="1">
          <mxGeometry x="101" y="550" width="99" height="20" as="geometry" />
        </mxCell>
        <mxCell id="mx6fACQu4inzdKoDhe1S-89" value="Swamp" style="rounded=1;whiteSpace=wrap;html=1;labelBackgroundColor=none;fillColor=#A8DADC;strokeColor=#457B9D;fontColor=#1D3557;fontSize=14;" parent="WIyWlLk6GJQsqaUBKTNV-1" vertex="1">
          <mxGeometry x="259" y="700" width="99" height="20" as="geometry" />
        </mxCell>
        <mxCell id="mx6fACQu4inzdKoDhe1S-90" value="Desert" style="rounded=1;whiteSpace=wrap;html=1;labelBackgroundColor=none;fillColor=#A8DADC;strokeColor=#457B9D;fontColor=#1D3557;fontSize=14;" parent="WIyWlLk6GJQsqaUBKTNV-1" vertex="1">
          <mxGeometry x="140" y="445" width="99" height="20" as="geometry" />
        </mxCell>
        <mxCell id="mx6fACQu4inzdKoDhe1S-91" value="Coastal" style="rounded=1;whiteSpace=wrap;html=1;labelBackgroundColor=none;fillColor=#A8DADC;strokeColor=#457B9D;fontColor=#1D3557;fontSize=14;" parent="WIyWlLk6GJQsqaUBKTNV-1" vertex="1">
          <mxGeometry x="200" y="400" width="99" height="20" as="geometry" />
        </mxCell>
        <mxCell id="mx6fACQu4inzdKoDhe1S-94" value="" style="endArrow=block;endSize=10;endFill=0;shadow=0;strokeWidth=1;rounded=1;edgeStyle=orthogonalEdgeStyle;elbow=vertical;exitX=0.75;exitY=1;exitDx=0;exitDy=0;labelBackgroundColor=none;strokeColor=#457B9D;fontColor=default;entryX=0;entryY=0.5;entryDx=0;entryDy=0;fontSize=14;" parent="WIyWlLk6GJQsqaUBKTNV-1" source="mx6fACQu4inzdKoDhe1S-91" target="FHGDtoVXzbjsq7zCovOQ-2" edge="1">
          <mxGeometry width="160" relative="1" as="geometry">
            <mxPoint x="80.94000000000005" y="795" as="sourcePoint" />
            <mxPoint x="80.94000000000005" y="695" as="targetPoint" />
            <Array as="points">
              <mxPoint x="274" y="440" />
              <mxPoint x="310" y="440" />
              <mxPoint x="310" y="480" />
            </Array>
          </mxGeometry>
        </mxCell>
        <mxCell id="mx6fACQu4inzdKoDhe1S-95" value="" style="endArrow=block;endSize=10;endFill=0;shadow=0;strokeWidth=1;rounded=1;edgeStyle=orthogonalEdgeStyle;elbow=vertical;exitX=1;exitY=0.5;exitDx=0;exitDy=0;labelBackgroundColor=none;strokeColor=#457B9D;fontColor=default;entryX=0;entryY=0.5;entryDx=0;entryDy=0;fontSize=14;" parent="WIyWlLk6GJQsqaUBKTNV-1" source="mx6fACQu4inzdKoDhe1S-90" target="FHGDtoVXzbjsq7zCovOQ-2" edge="1">
          <mxGeometry width="160" relative="1" as="geometry">
            <mxPoint x="90.94000000000005" y="805" as="sourcePoint" />
            <mxPoint x="90.94000000000005" y="705" as="targetPoint" />
            <Array as="points">
              <mxPoint x="310" y="455" />
              <mxPoint x="310" y="480" />
            </Array>
          </mxGeometry>
        </mxCell>
        <mxCell id="mx6fACQu4inzdKoDhe1S-96" value="" style="endArrow=block;endSize=10;endFill=0;shadow=0;strokeWidth=1;rounded=1;edgeStyle=orthogonalEdgeStyle;elbow=vertical;exitX=1;exitY=0.5;exitDx=0;exitDy=0;labelBackgroundColor=none;strokeColor=#457B9D;fontColor=default;entryX=0;entryY=0.5;entryDx=0;entryDy=0;fontSize=14;" parent="WIyWlLk6GJQsqaUBKTNV-1" source="mx6fACQu4inzdKoDhe1S-87" target="FHGDtoVXzbjsq7zCovOQ-2" edge="1">
          <mxGeometry width="160" relative="1" as="geometry">
            <mxPoint x="100.94000000000005" y="815" as="sourcePoint" />
            <mxPoint x="100.94000000000005" y="715" as="targetPoint" />
          </mxGeometry>
        </mxCell>
        <mxCell id="mx6fACQu4inzdKoDhe1S-97" value="" style="endArrow=block;endSize=10;endFill=0;shadow=0;strokeWidth=1;rounded=1;edgeStyle=orthogonalEdgeStyle;elbow=vertical;exitX=1;exitY=0.5;exitDx=0;exitDy=0;labelBackgroundColor=none;strokeColor=#457B9D;fontColor=default;entryX=0;entryY=0.5;entryDx=0;entryDy=0;fontSize=14;" parent="WIyWlLk6GJQsqaUBKTNV-1" source="mx6fACQu4inzdKoDhe1S-88" target="FHGDtoVXzbjsq7zCovOQ-2" edge="1">
          <mxGeometry width="160" relative="1" as="geometry">
            <mxPoint x="110.94000000000005" y="825" as="sourcePoint" />
            <mxPoint x="110.94000000000005" y="725" as="targetPoint" />
          </mxGeometry>
        </mxCell>
        <mxCell id="mx6fACQu4inzdKoDhe1S-98" value="" style="endArrow=block;endSize=10;endFill=0;shadow=0;strokeWidth=1;rounded=1;curved=0;edgeStyle=elbowEdgeStyle;elbow=vertical;exitX=0.75;exitY=0;exitDx=0;exitDy=0;labelBackgroundColor=none;strokeColor=#457B9D;fontColor=default;entryX=0.25;entryY=1;entryDx=0;entryDy=0;fontSize=14;" parent="WIyWlLk6GJQsqaUBKTNV-1" source="mx6fACQu4inzdKoDhe1S-82" target="FHGDtoVXzbjsq7zCovOQ-2" edge="1">
          <mxGeometry width="160" relative="1" as="geometry">
            <mxPoint x="120.94000000000005" y="835" as="sourcePoint" />
            <mxPoint x="120.94000000000005" y="735" as="targetPoint" />
            <Array as="points">
              <mxPoint x="350" y="580" />
            </Array>
          </mxGeometry>
        </mxCell>
        <mxCell id="mx6fACQu4inzdKoDhe1S-99" value="" style="endArrow=block;endSize=10;endFill=0;shadow=0;strokeWidth=1;rounded=1;curved=0;edgeStyle=elbowEdgeStyle;elbow=vertical;exitX=0.75;exitY=0;exitDx=0;exitDy=0;labelBackgroundColor=none;strokeColor=#457B9D;fontColor=default;entryX=0.25;entryY=1;entryDx=0;entryDy=0;fontSize=14;" parent="WIyWlLk6GJQsqaUBKTNV-1" source="mx6fACQu4inzdKoDhe1S-85" target="FHGDtoVXzbjsq7zCovOQ-2" edge="1">
          <mxGeometry width="160" relative="1" as="geometry">
            <mxPoint x="130.94000000000005" y="845" as="sourcePoint" />
            <mxPoint x="400" y="500" as="targetPoint" />
            <Array as="points">
              <mxPoint x="370" y="580" />
            </Array>
          </mxGeometry>
        </mxCell>
        <mxCell id="mx6fACQu4inzdKoDhe1S-100" value="" style="endArrow=block;endSize=10;endFill=0;shadow=0;strokeWidth=1;rounded=1;curved=0;edgeStyle=elbowEdgeStyle;elbow=vertical;exitX=0.75;exitY=0;exitDx=0;exitDy=0;labelBackgroundColor=none;strokeColor=#457B9D;fontColor=default;fontSize=14;" parent="WIyWlLk6GJQsqaUBKTNV-1" source="mx6fACQu4inzdKoDhe1S-89" edge="1">
          <mxGeometry width="160" relative="1" as="geometry">
            <mxPoint x="140.94000000000005" y="855" as="sourcePoint" />
            <mxPoint x="450" y="510" as="targetPoint" />
            <Array as="points">
              <mxPoint x="390" y="580" />
            </Array>
          </mxGeometry>
        </mxCell>
        <mxCell id="mx6fACQu4inzdKoDhe1S-101" value="" style="endArrow=block;endSize=10;endFill=0;shadow=0;strokeWidth=1;rounded=1;curved=0;edgeStyle=elbowEdgeStyle;elbow=vertical;exitX=0.25;exitY=0;exitDx=0;exitDy=0;labelBackgroundColor=none;strokeColor=#457B9D;fontColor=default;entryX=0.25;entryY=1;entryDx=0;entryDy=0;fontSize=14;" parent="WIyWlLk6GJQsqaUBKTNV-1" source="mx6fACQu4inzdKoDhe1S-84" target="FHGDtoVXzbjsq7zCovOQ-2" edge="1">
          <mxGeometry width="160" relative="1" as="geometry">
            <mxPoint x="150.94000000000005" y="865" as="sourcePoint" />
            <mxPoint x="150.94000000000005" y="765" as="targetPoint" />
            <Array as="points">
              <mxPoint x="430" y="580" />
            </Array>
          </mxGeometry>
        </mxCell>
        <mxCell id="mx6fACQu4inzdKoDhe1S-102" value="" style="endArrow=block;endSize=10;endFill=0;shadow=0;strokeWidth=1;rounded=1;curved=0;edgeStyle=elbowEdgeStyle;elbow=vertical;exitX=0.25;exitY=0;exitDx=0;exitDy=0;labelBackgroundColor=none;strokeColor=#457B9D;fontColor=default;entryX=0.25;entryY=1;entryDx=0;entryDy=0;fontSize=14;" parent="WIyWlLk6GJQsqaUBKTNV-1" source="mx6fACQu4inzdKoDhe1S-83" target="FHGDtoVXzbjsq7zCovOQ-2" edge="1">
          <mxGeometry width="160" relative="1" as="geometry">
            <mxPoint x="160.94000000000005" y="875" as="sourcePoint" />
            <mxPoint x="160.94000000000005" y="775" as="targetPoint" />
            <Array as="points">
              <mxPoint x="460" y="580" />
            </Array>
          </mxGeometry>
        </mxCell>
        <mxCell id="mx6fACQu4inzdKoDhe1S-103" value="" style="endArrow=block;endSize=10;endFill=0;shadow=0;strokeWidth=1;rounded=1;curved=0;edgeStyle=elbowEdgeStyle;elbow=vertical;exitX=0.25;exitY=0;exitDx=0;exitDy=0;labelBackgroundColor=none;strokeColor=#457B9D;fontColor=default;entryX=0.25;entryY=1;entryDx=0;entryDy=0;fontSize=14;" parent="WIyWlLk6GJQsqaUBKTNV-1" source="mx6fACQu4inzdKoDhe1S-76" target="FHGDtoVXzbjsq7zCovOQ-2" edge="1">
          <mxGeometry width="160" relative="1" as="geometry">
            <mxPoint x="381.00000000000006" y="590" as="sourcePoint" />
            <mxPoint x="381.00000000000006" y="490" as="targetPoint" />
            <Array as="points">
              <mxPoint x="470" y="580" />
            </Array>
          </mxGeometry>
        </mxCell>
        <mxCell id="mx6fACQu4inzdKoDhe1S-105" value="CultFanatic" style="rounded=1;whiteSpace=wrap;html=1;labelBackgroundColor=none;fillColor=#A8DADC;strokeColor=#457B9D;fontColor=#1D3557;fontSize=14;" parent="WIyWlLk6GJQsqaUBKTNV-1" vertex="1">
          <mxGeometry x="-510" y="93.5" width="99" height="20" as="geometry" />
        </mxCell>
        <mxCell id="mx6fACQu4inzdKoDhe1S-106" value="Assassin" style="rounded=1;whiteSpace=wrap;html=1;labelBackgroundColor=none;fillColor=#A8DADC;strokeColor=#457B9D;fontColor=#1D3557;fontSize=14;" parent="WIyWlLk6GJQsqaUBKTNV-1" vertex="1">
          <mxGeometry x="-260.5" y="330" width="99" height="20" as="geometry" />
        </mxCell>
        <mxCell id="mx6fACQu4inzdKoDhe1S-107" value="BanditCaptain" style="rounded=1;whiteSpace=wrap;html=1;labelBackgroundColor=none;fillColor=#A8DADC;strokeColor=#457B9D;fontColor=#1D3557;fontSize=14;" parent="WIyWlLk6GJQsqaUBKTNV-1" vertex="1">
          <mxGeometry x="-428" y="240" width="99" height="20" as="geometry" />
        </mxCell>
        <mxCell id="mx6fACQu4inzdKoDhe1S-108" value="Berserker" style="rounded=1;whiteSpace=wrap;html=1;labelBackgroundColor=none;fillColor=#A8DADC;strokeColor=#457B9D;fontColor=#1D3557;fontSize=14;" parent="WIyWlLk6GJQsqaUBKTNV-1" vertex="1">
          <mxGeometry x="-471" y="193.5" width="99" height="20" as="geometry" />
        </mxCell>
        <mxCell id="mx6fACQu4inzdKoDhe1S-109" value="Commoner" style="rounded=1;whiteSpace=wrap;html=1;labelBackgroundColor=none;fillColor=#A8DADC;strokeColor=#457B9D;fontColor=#1D3557;fontSize=14;" parent="WIyWlLk6GJQsqaUBKTNV-1" vertex="1">
          <mxGeometry x="-500" y="143.5" width="99" height="20" as="geometry" />
        </mxCell>
        <mxCell id="mx6fACQu4inzdKoDhe1S-110" value="Cultist" style="rounded=1;whiteSpace=wrap;html=1;labelBackgroundColor=none;fillColor=#A8DADC;strokeColor=#457B9D;fontColor=#1D3557;fontSize=14;" parent="WIyWlLk6GJQsqaUBKTNV-1" vertex="1">
          <mxGeometry x="-510" y="34.5" width="99" height="20" as="geometry" />
        </mxCell>
        <mxCell id="mx6fACQu4inzdKoDhe1S-111" value="Mage" style="rounded=1;whiteSpace=wrap;html=1;labelBackgroundColor=none;fillColor=#A8DADC;strokeColor=#457B9D;fontColor=#1D3557;fontSize=14;" parent="WIyWlLk6GJQsqaUBKTNV-1" vertex="1">
          <mxGeometry x="-149.5" y="-200" width="99" height="20" as="geometry" />
        </mxCell>
        <mxCell id="mx6fACQu4inzdKoDhe1S-112" value="Bandit" style="rounded=1;whiteSpace=wrap;html=1;labelBackgroundColor=none;fillColor=#A8DADC;strokeColor=#457B9D;fontColor=#1D3557;fontSize=14;" parent="WIyWlLk6GJQsqaUBKTNV-1" vertex="1">
          <mxGeometry x="-347.5" y="290" width="99" height="20" as="geometry" />
        </mxCell>
        <mxCell id="mx6fACQu4inzdKoDhe1S-113" value="Acolyte" style="rounded=1;whiteSpace=wrap;html=1;labelBackgroundColor=none;fillColor=#A8DADC;strokeColor=#457B9D;fontColor=#1D3557;fontSize=14;" parent="WIyWlLk6GJQsqaUBKTNV-1" vertex="1">
          <mxGeometry y="350" width="99" height="20" as="geometry" />
        </mxCell>
        <mxCell id="mx6fACQu4inzdKoDhe1S-114" value="Druid" style="rounded=1;whiteSpace=wrap;html=1;labelBackgroundColor=none;fillColor=#A8DADC;strokeColor=#457B9D;fontColor=#1D3557;fontSize=14;" parent="WIyWlLk6GJQsqaUBKTNV-1" vertex="1">
          <mxGeometry x="-471" y="-21.5" width="99" height="20" as="geometry" />
        </mxCell>
        <mxCell id="mx6fACQu4inzdKoDhe1S-115" value="Gladiator" style="rounded=1;whiteSpace=wrap;html=1;labelBackgroundColor=none;fillColor=#A8DADC;strokeColor=#457B9D;fontColor=#1D3557;fontSize=14;" parent="WIyWlLk6GJQsqaUBKTNV-1" vertex="1">
          <mxGeometry x="-379" y="-70" width="99" height="20" as="geometry" />
        </mxCell>
        <mxCell id="mx6fACQu4inzdKoDhe1S-116" value="Giant" style="rounded=1;whiteSpace=wrap;html=1;labelBackgroundColor=none;fillColor=#A8DADC;strokeColor=#457B9D;fontColor=#1D3557;fontSize=14;" parent="WIyWlLk6GJQsqaUBKTNV-1" vertex="1">
          <mxGeometry x="-329" y="-120" width="99" height="20" as="geometry" />
        </mxCell>
        <mxCell id="mx6fACQu4inzdKoDhe1S-117" value="Knight" style="rounded=1;whiteSpace=wrap;html=1;labelBackgroundColor=none;fillColor=#A8DADC;strokeColor=#457B9D;fontColor=#1D3557;fontSize=14;" parent="WIyWlLk6GJQsqaUBKTNV-1" vertex="1">
          <mxGeometry x="-248.5" y="-160" width="99" height="20" as="geometry" />
        </mxCell>
        <mxCell id="mx6fACQu4inzdKoDhe1S-118" value="Noble" style="rounded=1;whiteSpace=wrap;html=1;labelBackgroundColor=none;fillColor=#A8DADC;strokeColor=#457B9D;fontColor=#1D3557;fontSize=14;" parent="WIyWlLk6GJQsqaUBKTNV-1" vertex="1">
          <mxGeometry x="-20" y="-180" width="99" height="20" as="geometry" />
        </mxCell>
        <mxCell id="mx6fACQu4inzdKoDhe1S-119" value="Priest" style="rounded=1;whiteSpace=wrap;html=1;labelBackgroundColor=none;fillColor=#A8DADC;strokeColor=#457B9D;fontColor=#1D3557;fontSize=14;" parent="WIyWlLk6GJQsqaUBKTNV-1" vertex="1">
          <mxGeometry x="90" y="-150" width="99" height="20" as="geometry" />
        </mxCell>
        <mxCell id="mx6fACQu4inzdKoDhe1S-120" value="Scout" style="rounded=1;whiteSpace=wrap;html=1;labelBackgroundColor=none;fillColor=#A8DADC;strokeColor=#457B9D;fontColor=#1D3557;fontSize=14;" parent="WIyWlLk6GJQsqaUBKTNV-1" vertex="1">
          <mxGeometry x="179.5" y="-100" width="99" height="20" as="geometry" />
        </mxCell>
        <mxCell id="mx6fACQu4inzdKoDhe1S-121" value="Spy" style="rounded=1;whiteSpace=wrap;html=1;labelBackgroundColor=none;fillColor=#A8DADC;strokeColor=#457B9D;fontColor=#1D3557;fontSize=14;" parent="WIyWlLk6GJQsqaUBKTNV-1" vertex="1">
          <mxGeometry x="250" y="-50" width="99" height="20" as="geometry" />
        </mxCell>
        <mxCell id="mx6fACQu4inzdKoDhe1S-122" value="Thug" style="rounded=1;whiteSpace=wrap;html=1;labelBackgroundColor=none;fillColor=#A8DADC;strokeColor=#457B9D;fontColor=#1D3557;fontSize=14;" parent="WIyWlLk6GJQsqaUBKTNV-1" vertex="1">
          <mxGeometry x="310" y="18" width="99" height="20" as="geometry" />
        </mxCell>
        <mxCell id="mx6fACQu4inzdKoDhe1S-123" value="Veteran" style="rounded=1;whiteSpace=wrap;html=1;labelBackgroundColor=none;fillColor=#A8DADC;strokeColor=#457B9D;fontColor=#1D3557;fontSize=14;" parent="WIyWlLk6GJQsqaUBKTNV-1" vertex="1">
          <mxGeometry x="359" y="143.5" width="99" height="20" as="geometry" />
        </mxCell>
        <mxCell id="mx6fACQu4inzdKoDhe1S-124" value="TribalWarrior" style="rounded=1;whiteSpace=wrap;html=1;labelBackgroundColor=none;fillColor=#A8DADC;strokeColor=#457B9D;fontColor=#1D3557;fontSize=14;" parent="WIyWlLk6GJQsqaUBKTNV-1" vertex="1">
          <mxGeometry x="340.5" y="86" width="99" height="20" as="geometry" />
        </mxCell>
        <mxCell id="mx6fACQu4inzdKoDhe1S-136" value="" style="endArrow=block;endSize=10;endFill=0;shadow=0;strokeWidth=1;rounded=1;edgeStyle=orthogonalEdgeStyle;elbow=vertical;exitX=0.25;exitY=0;exitDx=0;exitDy=0;labelBackgroundColor=none;strokeColor=#457B9D;fontColor=default;entryX=0;entryY=0.5;entryDx=0;entryDy=0;fontSize=14;" parent="WIyWlLk6GJQsqaUBKTNV-1" source="mx6fACQu4inzdKoDhe1S-113" target="FHGDtoVXzbjsq7zCovOQ-1" edge="1">
          <mxGeometry width="160" relative="1" as="geometry">
            <mxPoint x="-272.07" y="169.43" as="sourcePoint" />
            <mxPoint x="-162.07" y="-15.569999999999993" as="targetPoint" />
            <Array as="points">
              <mxPoint x="25" y="260" />
              <mxPoint x="-90" y="260" />
              <mxPoint x="-90" y="185" />
            </Array>
          </mxGeometry>
        </mxCell>
        <mxCell id="mx6fACQu4inzdKoDhe1S-137" value="" style="endArrow=block;endSize=10;endFill=0;shadow=0;strokeWidth=1;rounded=1;edgeStyle=orthogonalEdgeStyle;elbow=vertical;exitX=0.75;exitY=0;exitDx=0;exitDy=0;labelBackgroundColor=none;strokeColor=#457B9D;fontColor=default;entryX=0;entryY=0.5;entryDx=0;entryDy=0;fontSize=14;" parent="WIyWlLk6GJQsqaUBKTNV-1" source="mx6fACQu4inzdKoDhe1S-106" target="FHGDtoVXzbjsq7zCovOQ-1" edge="1">
          <mxGeometry width="160" relative="1" as="geometry">
            <mxPoint x="-70" y="390" as="sourcePoint" />
            <mxPoint x="-100" y="120" as="targetPoint" />
          </mxGeometry>
        </mxCell>
        <mxCell id="mx6fACQu4inzdKoDhe1S-138" value="" style="endArrow=block;endSize=10;endFill=0;shadow=0;strokeWidth=1;rounded=1;edgeStyle=orthogonalEdgeStyle;elbow=vertical;labelBackgroundColor=none;strokeColor=#457B9D;fontColor=default;entryX=0.25;entryY=0;entryDx=0;entryDy=0;exitX=0.25;exitY=1;exitDx=0;exitDy=0;fontSize=14;" parent="WIyWlLk6GJQsqaUBKTNV-1" source="mx6fACQu4inzdKoDhe1S-120" target="FHGDtoVXzbjsq7zCovOQ-1" edge="1">
          <mxGeometry width="160" relative="1" as="geometry">
            <mxPoint x="197.92999999999995" y="-220" as="sourcePoint" />
            <mxPoint x="120" y="110" as="targetPoint" />
            <Array as="points">
              <mxPoint x="204" y="80" />
              <mxPoint x="50" y="80" />
            </Array>
          </mxGeometry>
        </mxCell>
        <mxCell id="mx6fACQu4inzdKoDhe1S-139" value="" style="endArrow=block;endSize=10;endFill=0;shadow=0;strokeWidth=1;rounded=1;edgeStyle=orthogonalEdgeStyle;elbow=vertical;labelBackgroundColor=none;strokeColor=#457B9D;fontColor=default;exitX=1;exitY=0.25;exitDx=0;exitDy=0;entryX=0;entryY=0.5;entryDx=0;entryDy=0;fontSize=14;" parent="WIyWlLk6GJQsqaUBKTNV-1" source="mx6fACQu4inzdKoDhe1S-108" target="FHGDtoVXzbjsq7zCovOQ-1" edge="1">
          <mxGeometry width="160" relative="1" as="geometry">
            <mxPoint x="-190" y="139.71" as="sourcePoint" />
            <mxPoint x="-120" y="79.71000000000001" as="targetPoint" />
            <Array as="points">
              <mxPoint x="-290" y="198" />
              <mxPoint x="-290" y="185" />
            </Array>
          </mxGeometry>
        </mxCell>
        <mxCell id="mx6fACQu4inzdKoDhe1S-140" value="" style="endArrow=block;endSize=10;endFill=0;shadow=0;strokeWidth=1;rounded=1;edgeStyle=orthogonalEdgeStyle;elbow=vertical;labelBackgroundColor=none;strokeColor=#457B9D;fontColor=default;entryX=0;entryY=0.5;entryDx=0;entryDy=0;exitX=1;exitY=0.5;exitDx=0;exitDy=0;fontSize=14;" parent="WIyWlLk6GJQsqaUBKTNV-1" source="mx6fACQu4inzdKoDhe1S-107" target="FHGDtoVXzbjsq7zCovOQ-1" edge="1">
          <mxGeometry width="160" relative="1" as="geometry">
            <mxPoint x="-319.07" y="139.71" as="sourcePoint" />
            <mxPoint x="-249.07" y="79.71000000000001" as="targetPoint" />
            <Array as="points">
              <mxPoint x="-290" y="250" />
              <mxPoint x="-290" y="185" />
            </Array>
          </mxGeometry>
        </mxCell>
        <mxCell id="mx6fACQu4inzdKoDhe1S-141" value="" style="endArrow=block;endSize=10;endFill=0;shadow=0;strokeWidth=1;rounded=1;edgeStyle=orthogonalEdgeStyle;elbow=vertical;labelBackgroundColor=none;strokeColor=#457B9D;fontColor=default;exitX=0.75;exitY=0;exitDx=0;exitDy=0;entryX=0;entryY=0.5;entryDx=0;entryDy=0;fontSize=14;" parent="WIyWlLk6GJQsqaUBKTNV-1" source="mx6fACQu4inzdKoDhe1S-112" target="FHGDtoVXzbjsq7zCovOQ-1" edge="1">
          <mxGeometry width="160" relative="1" as="geometry">
            <mxPoint x="-300.57" y="173.5" as="sourcePoint" />
            <mxPoint x="-230.57" y="113.5" as="targetPoint" />
            <Array as="points">
              <mxPoint x="-273" y="185" />
            </Array>
          </mxGeometry>
        </mxCell>
        <mxCell id="mx6fACQu4inzdKoDhe1S-142" value="" style="endArrow=block;endSize=10;endFill=0;shadow=0;strokeWidth=1;rounded=1;edgeStyle=orthogonalEdgeStyle;elbow=vertical;labelBackgroundColor=none;strokeColor=#457B9D;fontColor=default;entryX=0.25;entryY=0;entryDx=0;entryDy=0;exitX=1;exitY=0.75;exitDx=0;exitDy=0;fontSize=14;" parent="WIyWlLk6GJQsqaUBKTNV-1" source="mx6fACQu4inzdKoDhe1S-115" target="FHGDtoVXzbjsq7zCovOQ-1" edge="1">
          <mxGeometry width="160" relative="1" as="geometry">
            <mxPoint x="-125.29000000000002" y="94.5" as="sourcePoint" />
            <mxPoint x="-55.29000000000002" y="34.5" as="targetPoint" />
            <Array as="points">
              <mxPoint x="-100" y="-55" />
              <mxPoint x="-100" y="-10" />
              <mxPoint x="50" y="-10" />
            </Array>
          </mxGeometry>
        </mxCell>
        <mxCell id="mx6fACQu4inzdKoDhe1S-143" value="" style="endArrow=block;endSize=10;endFill=0;shadow=0;strokeWidth=1;rounded=1;edgeStyle=orthogonalEdgeStyle;elbow=vertical;labelBackgroundColor=none;strokeColor=#457B9D;fontColor=default;exitX=1;exitY=0.5;exitDx=0;exitDy=0;entryX=0.25;entryY=0;entryDx=0;entryDy=0;fontSize=14;" parent="WIyWlLk6GJQsqaUBKTNV-1" source="mx6fACQu4inzdKoDhe1S-114" target="FHGDtoVXzbjsq7zCovOQ-1" edge="1">
          <mxGeometry width="160" relative="1" as="geometry">
            <mxPoint x="-149.5" y="78" as="sourcePoint" />
            <mxPoint x="-79.5" y="18" as="targetPoint" />
          </mxGeometry>
        </mxCell>
        <mxCell id="mx6fACQu4inzdKoDhe1S-144" value="" style="endArrow=block;endSize=10;endFill=0;shadow=0;strokeWidth=1;rounded=1;edgeStyle=orthogonalEdgeStyle;elbow=vertical;labelBackgroundColor=none;strokeColor=#457B9D;fontColor=default;exitX=1;exitY=0.5;exitDx=0;exitDy=0;entryX=0;entryY=0.5;entryDx=0;entryDy=0;fontSize=14;" parent="WIyWlLk6GJQsqaUBKTNV-1" source="mx6fACQu4inzdKoDhe1S-110" target="FHGDtoVXzbjsq7zCovOQ-1" edge="1">
          <mxGeometry width="160" relative="1" as="geometry">
            <mxPoint x="-161.5" y="53.93000000000001" as="sourcePoint" />
            <mxPoint x="-91.5" y="-6.069999999999993" as="targetPoint" />
            <Array as="points">
              <mxPoint x="-290" y="44" />
              <mxPoint x="-290" y="185" />
            </Array>
          </mxGeometry>
        </mxCell>
        <mxCell id="mx6fACQu4inzdKoDhe1S-145" value="" style="endArrow=block;endSize=10;endFill=0;shadow=0;strokeWidth=1;rounded=1;edgeStyle=orthogonalEdgeStyle;elbow=vertical;labelBackgroundColor=none;strokeColor=#457B9D;fontColor=default;exitX=1;exitY=0.5;exitDx=0;exitDy=0;entryX=0;entryY=0.5;entryDx=0;entryDy=0;fontSize=14;" parent="WIyWlLk6GJQsqaUBKTNV-1" source="mx6fACQu4inzdKoDhe1S-105" target="FHGDtoVXzbjsq7zCovOQ-1" edge="1">
          <mxGeometry width="160" relative="1" as="geometry">
            <mxPoint x="-260.5" y="105.43" as="sourcePoint" />
            <mxPoint x="-190.5" y="45.43000000000001" as="targetPoint" />
            <Array as="points">
              <mxPoint x="-290" y="103" />
              <mxPoint x="-290" y="185" />
            </Array>
          </mxGeometry>
        </mxCell>
        <mxCell id="mx6fACQu4inzdKoDhe1S-146" value="" style="endArrow=block;endSize=10;endFill=0;shadow=0;strokeWidth=1;rounded=1;edgeStyle=orthogonalEdgeStyle;elbow=vertical;labelBackgroundColor=none;strokeColor=#457B9D;fontColor=default;exitX=1;exitY=0.75;exitDx=0;exitDy=0;entryX=0;entryY=0.5;entryDx=0;entryDy=0;fontSize=14;" parent="WIyWlLk6GJQsqaUBKTNV-1" source="mx6fACQu4inzdKoDhe1S-109" target="FHGDtoVXzbjsq7zCovOQ-1" edge="1">
          <mxGeometry width="160" relative="1" as="geometry">
            <mxPoint x="-240" y="53.93000000000001" as="sourcePoint" />
            <mxPoint x="-170" y="-6.069999999999993" as="targetPoint" />
            <Array as="points">
              <mxPoint x="-290" y="158" />
              <mxPoint x="-290" y="185" />
            </Array>
          </mxGeometry>
        </mxCell>
        <mxCell id="mx6fACQu4inzdKoDhe1S-147" value="" style="endArrow=block;endSize=10;endFill=0;shadow=0;strokeWidth=1;rounded=1;edgeStyle=orthogonalEdgeStyle;elbow=vertical;labelBackgroundColor=none;strokeColor=#457B9D;fontColor=default;exitX=0.25;exitY=1;exitDx=0;exitDy=0;entryX=0.25;entryY=0;entryDx=0;entryDy=0;fontSize=14;" parent="WIyWlLk6GJQsqaUBKTNV-1" source="mx6fACQu4inzdKoDhe1S-119" target="FHGDtoVXzbjsq7zCovOQ-1" edge="1">
          <mxGeometry width="160" relative="1" as="geometry">
            <mxPoint x="207.92999999999995" y="-210" as="sourcePoint" />
            <mxPoint x="50" y="170" as="targetPoint" />
            <Array as="points">
              <mxPoint x="115" y="80" />
              <mxPoint x="50" y="80" />
            </Array>
          </mxGeometry>
        </mxCell>
        <mxCell id="mx6fACQu4inzdKoDhe1S-148" value="" style="endArrow=block;endSize=10;endFill=0;shadow=0;strokeWidth=1;rounded=1;edgeStyle=orthogonalEdgeStyle;elbow=vertical;labelBackgroundColor=none;strokeColor=#457B9D;fontColor=default;entryX=0.25;entryY=0;entryDx=0;entryDy=0;exitX=0.25;exitY=1;exitDx=0;exitDy=0;fontSize=14;" parent="WIyWlLk6GJQsqaUBKTNV-1" source="mx6fACQu4inzdKoDhe1S-118" target="FHGDtoVXzbjsq7zCovOQ-1" edge="1">
          <mxGeometry width="160" relative="1" as="geometry">
            <mxPoint x="-530" y="-70" as="sourcePoint" />
            <mxPoint x="-460" y="-130" as="targetPoint" />
            <Array as="points">
              <mxPoint x="5" y="-10" />
              <mxPoint x="50" y="-10" />
            </Array>
          </mxGeometry>
        </mxCell>
        <mxCell id="mx6fACQu4inzdKoDhe1S-149" value="" style="endArrow=block;endSize=10;endFill=0;shadow=0;strokeWidth=1;rounded=1;edgeStyle=orthogonalEdgeStyle;elbow=vertical;labelBackgroundColor=none;strokeColor=#457B9D;fontColor=default;entryX=0.25;entryY=0;entryDx=0;entryDy=0;exitX=0.5;exitY=1;exitDx=0;exitDy=0;fontSize=14;" parent="WIyWlLk6GJQsqaUBKTNV-1" source="mx6fACQu4inzdKoDhe1S-111" target="FHGDtoVXzbjsq7zCovOQ-1" edge="1">
          <mxGeometry width="160" relative="1" as="geometry">
            <mxPoint x="-520" y="-60" as="sourcePoint" />
            <mxPoint x="-50" y="120" as="targetPoint" />
          </mxGeometry>
        </mxCell>
        <mxCell id="mx6fACQu4inzdKoDhe1S-150" value="" style="endArrow=block;endSize=10;endFill=0;shadow=0;strokeWidth=1;rounded=1;edgeStyle=orthogonalEdgeStyle;elbow=vertical;labelBackgroundColor=none;strokeColor=#457B9D;fontColor=default;entryX=0.25;entryY=0;entryDx=0;entryDy=0;exitX=1;exitY=0.5;exitDx=0;exitDy=0;fontSize=14;" parent="WIyWlLk6GJQsqaUBKTNV-1" source="mx6fACQu4inzdKoDhe1S-116" target="FHGDtoVXzbjsq7zCovOQ-1" edge="1">
          <mxGeometry width="160" relative="1" as="geometry">
            <mxPoint x="-510" y="-50" as="sourcePoint" />
            <mxPoint x="-440" y="-110" as="targetPoint" />
            <Array as="points">
              <mxPoint x="-100" y="-110" />
              <mxPoint x="-100" y="-10" />
              <mxPoint x="50" y="-10" />
            </Array>
          </mxGeometry>
        </mxCell>
        <mxCell id="mx6fACQu4inzdKoDhe1S-151" value="" style="endArrow=block;endSize=10;endFill=0;shadow=0;strokeWidth=1;rounded=1;edgeStyle=orthogonalEdgeStyle;elbow=vertical;labelBackgroundColor=none;strokeColor=#457B9D;fontColor=default;entryX=0.25;entryY=0;entryDx=0;entryDy=0;exitX=1;exitY=0.75;exitDx=0;exitDy=0;fontSize=14;" parent="WIyWlLk6GJQsqaUBKTNV-1" source="mx6fACQu4inzdKoDhe1S-117" target="FHGDtoVXzbjsq7zCovOQ-1" edge="1">
          <mxGeometry width="160" relative="1" as="geometry">
            <mxPoint x="-500" y="-40" as="sourcePoint" />
            <mxPoint x="-430" y="-100" as="targetPoint" />
            <Array as="points">
              <mxPoint x="-100" y="-145" />
              <mxPoint x="-100" y="-10" />
              <mxPoint x="50" y="-10" />
            </Array>
          </mxGeometry>
        </mxCell>
        <mxCell id="mx6fACQu4inzdKoDhe1S-152" value="" style="endArrow=block;endSize=10;endFill=0;shadow=0;strokeWidth=1;rounded=1;edgeStyle=orthogonalEdgeStyle;elbow=vertical;labelBackgroundColor=none;strokeColor=#457B9D;fontColor=default;entryX=0.25;entryY=0;entryDx=0;entryDy=0;exitX=0;exitY=0.25;exitDx=0;exitDy=0;fontSize=14;" parent="WIyWlLk6GJQsqaUBKTNV-1" source="mx6fACQu4inzdKoDhe1S-124" target="FHGDtoVXzbjsq7zCovOQ-1" edge="1">
          <mxGeometry width="160" relative="1" as="geometry">
            <mxPoint x="635" y="-110" as="sourcePoint" />
            <mxPoint x="570" y="-15" as="targetPoint" />
            <Array as="points">
              <mxPoint x="160" y="91" />
              <mxPoint x="160" y="80" />
              <mxPoint x="50" y="80" />
            </Array>
          </mxGeometry>
        </mxCell>
        <mxCell id="mx6fACQu4inzdKoDhe1S-153" value="" style="endArrow=block;endSize=10;endFill=0;shadow=0;strokeWidth=1;rounded=1;edgeStyle=orthogonalEdgeStyle;elbow=vertical;labelBackgroundColor=none;strokeColor=#457B9D;fontColor=default;entryX=0.25;entryY=0;entryDx=0;entryDy=0;exitX=0;exitY=0.5;exitDx=0;exitDy=0;fontSize=14;" parent="WIyWlLk6GJQsqaUBKTNV-1" source="mx6fACQu4inzdKoDhe1S-122" target="FHGDtoVXzbjsq7zCovOQ-1" edge="1">
          <mxGeometry width="160" relative="1" as="geometry">
            <mxPoint x="645" y="-200" as="sourcePoint" />
            <mxPoint x="230" y="120" as="targetPoint" />
            <Array as="points">
              <mxPoint x="290" y="28" />
              <mxPoint x="290" y="80" />
              <mxPoint x="50" y="80" />
            </Array>
          </mxGeometry>
        </mxCell>
        <mxCell id="mx6fACQu4inzdKoDhe1S-154" value="" style="endArrow=block;endSize=10;endFill=0;shadow=0;strokeWidth=1;rounded=1;edgeStyle=orthogonalEdgeStyle;elbow=vertical;labelBackgroundColor=none;strokeColor=#457B9D;fontColor=default;entryX=0.25;entryY=0;entryDx=0;entryDy=0;exitX=0;exitY=0.5;exitDx=0;exitDy=0;fontSize=14;" parent="WIyWlLk6GJQsqaUBKTNV-1" source="mx6fACQu4inzdKoDhe1S-123" target="FHGDtoVXzbjsq7zCovOQ-1" edge="1">
          <mxGeometry width="160" relative="1" as="geometry">
            <mxPoint x="730" y="155" as="sourcePoint" />
            <mxPoint x="520" y="-70" as="targetPoint" />
            <Array as="points">
              <mxPoint x="160" y="153" />
              <mxPoint x="160" y="80" />
              <mxPoint x="50" y="80" />
            </Array>
          </mxGeometry>
        </mxCell>
        <mxCell id="mx6fACQu4inzdKoDhe1S-155" value="" style="endArrow=block;endSize=10;endFill=0;shadow=0;strokeWidth=1;rounded=1;edgeStyle=orthogonalEdgeStyle;elbow=vertical;labelBackgroundColor=none;strokeColor=#457B9D;fontColor=default;exitX=0.25;exitY=1;exitDx=0;exitDy=0;entryX=0.25;entryY=0;entryDx=0;entryDy=0;fontSize=14;" parent="WIyWlLk6GJQsqaUBKTNV-1" source="mx6fACQu4inzdKoDhe1S-121" target="FHGDtoVXzbjsq7zCovOQ-1" edge="1">
          <mxGeometry width="160" relative="1" as="geometry">
            <mxPoint x="665" y="-180" as="sourcePoint" />
            <mxPoint x="50" y="160" as="targetPoint" />
            <Array as="points">
              <mxPoint x="275" y="80" />
              <mxPoint x="50" y="80" />
            </Array>
          </mxGeometry>
        </mxCell>
      </root>
    </mxGraphModel>
  </diagram>
  <diagram id="45dVJtyAfA6Y2OsWOjIv" name="Page-2">
    <mxGraphModel dx="4190" dy="1963" grid="1" gridSize="10" guides="1" tooltips="1" connect="1" arrows="1" fold="1" page="1" pageScale="1" pageWidth="827" pageHeight="1169" math="0" shadow="0">
      <root>
        <mxCell id="0" />
        <mxCell id="1" parent="0" />
        <mxCell id="DNhez1r4yHRH3-gP5dbR-24" value="owl:Thing" style="rounded=1;whiteSpace=wrap;html=1;labelBackgroundColor=none;fillColor=#A8DADC;strokeColor=#457B9D;fontColor=#1D3557;fontSize=18;" parent="1" vertex="1">
          <mxGeometry x="800" y="30" width="120" height="60" as="geometry" />
        </mxCell>
        <mxCell id="DNhez1r4yHRH3-gP5dbR-25" value="DnDClass" style="rounded=1;whiteSpace=wrap;html=1;labelBackgroundColor=none;fillColor=#A8DADC;strokeColor=#457B9D;fontColor=#1D3557;fontSize=18;" parent="1" vertex="1">
          <mxGeometry x="320" y="210" width="120" height="60" as="geometry" />
        </mxCell>
        <mxCell id="DNhez1r4yHRH3-gP5dbR-26" value="Environment" style="rounded=1;whiteSpace=wrap;html=1;labelBackgroundColor=none;fillColor=#A8DADC;strokeColor=#457B9D;fontColor=#1D3557;fontSize=18;" parent="1" vertex="1">
          <mxGeometry x="560" y="210" width="120" height="60" as="geometry" />
        </mxCell>
        <mxCell id="DNhez1r4yHRH3-gP5dbR-27" value="Alignment" style="rounded=1;whiteSpace=wrap;html=1;labelBackgroundColor=none;fillColor=#A8DADC;strokeColor=#457B9D;fontColor=#1D3557;fontSize=18;" parent="1" vertex="1">
          <mxGeometry x="1040" y="208" width="120" height="60" as="geometry" />
        </mxCell>
        <mxCell id="DNhez1r4yHRH3-gP5dbR-28" value="Size" style="rounded=1;whiteSpace=wrap;html=1;labelBackgroundColor=none;fillColor=#A8DADC;strokeColor=#457B9D;fontColor=#1D3557;fontSize=18;" parent="1" vertex="1">
          <mxGeometry x="1280" y="208" width="120" height="60" as="geometry" />
        </mxCell>
        <mxCell id="DNhez1r4yHRH3-gP5dbR-29" value="Creature" style="rounded=1;whiteSpace=wrap;html=1;labelBackgroundColor=none;fillColor=#A8DADC;strokeColor=#457B9D;fontColor=#1D3557;fontSize=18;" parent="1" vertex="1">
          <mxGeometry x="800" y="208" width="120" height="60" as="geometry" />
        </mxCell>
        <mxCell id="DNhez1r4yHRH3-gP5dbR-34" value="hasSize" style="endArrow=open;endSize=12;dashed=1;html=1;rounded=1;exitX=0.75;exitY=1;exitDx=0;exitDy=0;entryX=0.25;entryY=1;entryDx=0;entryDy=0;labelBackgroundColor=none;strokeColor=#457B9D;fontColor=default;fontSize=14;" parent="1" source="DNhez1r4yHRH3-gP5dbR-29" target="DNhez1r4yHRH3-gP5dbR-28" edge="1">
          <mxGeometry x="-0.5261" y="-1" width="160" relative="1" as="geometry">
            <mxPoint x="550" y="310" as="sourcePoint" />
            <mxPoint x="710" y="310" as="targetPoint" />
            <mxPoint as="offset" />
            <Array as="points">
              <mxPoint x="890" y="300" />
              <mxPoint x="1310" y="300" />
            </Array>
          </mxGeometry>
        </mxCell>
        <mxCell id="DNhez1r4yHRH3-gP5dbR-35" value="livesIn" style="endArrow=open;endSize=12;dashed=1;html=1;rounded=1;exitX=0;exitY=0.5;exitDx=0;exitDy=0;entryX=1;entryY=0.5;entryDx=0;entryDy=0;labelBackgroundColor=none;strokeColor=#457B9D;fontColor=default;fontSize=14;" parent="1" source="DNhez1r4yHRH3-gP5dbR-29" target="DNhez1r4yHRH3-gP5dbR-26" edge="1">
          <mxGeometry width="160" relative="1" as="geometry">
            <mxPoint x="560" y="320" as="sourcePoint" />
            <mxPoint x="720" y="320" as="targetPoint" />
          </mxGeometry>
        </mxCell>
        <mxCell id="DNhez1r4yHRH3-gP5dbR-36" value="hasAlignment" style="endArrow=open;endSize=12;dashed=1;html=1;rounded=1;exitX=1;exitY=0.5;exitDx=0;exitDy=0;entryX=0;entryY=0.5;entryDx=0;entryDy=0;labelBackgroundColor=none;strokeColor=#457B9D;fontColor=default;fontSize=14;" parent="1" source="DNhez1r4yHRH3-gP5dbR-29" target="DNhez1r4yHRH3-gP5dbR-27" edge="1">
          <mxGeometry x="-0.1667" y="-2" width="160" relative="1" as="geometry">
            <mxPoint x="570" y="330" as="sourcePoint" />
            <mxPoint x="730" y="330" as="targetPoint" />
            <mxPoint as="offset" />
          </mxGeometry>
        </mxCell>
        <mxCell id="DNhez1r4yHRH3-gP5dbR-37" value="Humanoid" style="rounded=1;whiteSpace=wrap;html=1;labelBackgroundColor=none;fillColor=#A8DADC;strokeColor=#457B9D;fontColor=#1D3557;fontSize=14;" parent="1" vertex="1">
          <mxGeometry x="-313" y="630" width="110" height="40" as="geometry" />
        </mxCell>
        <mxCell id="DNhez1r4yHRH3-gP5dbR-38" value="" style="endArrow=block;endSize=10;endFill=0;shadow=0;strokeWidth=1;rounded=1;curved=0;edgeStyle=elbowEdgeStyle;elbow=vertical;entryX=0.5;entryY=1;entryDx=0;entryDy=0;exitX=0.5;exitY=0;exitDx=0;exitDy=0;labelBackgroundColor=none;strokeColor=#457B9D;fontColor=default;fontSize=14;" parent="1" source="DNhez1r4yHRH3-gP5dbR-37" target="DNhez1r4yHRH3-gP5dbR-29" edge="1">
          <mxGeometry width="160" relative="1" as="geometry">
            <mxPoint x="580" y="248" as="sourcePoint" />
            <mxPoint x="830" y="100" as="targetPoint" />
            <Array as="points">
              <mxPoint x="140" y="570" />
            </Array>
          </mxGeometry>
        </mxCell>
        <mxCell id="DNhez1r4yHRH3-gP5dbR-40" value="hasClass" style="endArrow=open;endSize=12;dashed=1;html=1;rounded=1;exitX=0.75;exitY=0;exitDx=0;exitDy=0;entryX=0;entryY=0.75;entryDx=0;entryDy=0;labelBackgroundColor=none;strokeColor=#457B9D;fontColor=default;fontSize=14;" parent="1" source="DNhez1r4yHRH3-gP5dbR-37" target="DNhez1r4yHRH3-gP5dbR-25" edge="1">
          <mxGeometry x="-0.8657" y="-6" width="160" relative="1" as="geometry">
            <mxPoint x="600" y="430" as="sourcePoint" />
            <mxPoint x="1010" y="430" as="targetPoint" />
            <mxPoint as="offset" />
          </mxGeometry>
        </mxCell>
        <mxCell id="DNhez1r4yHRH3-gP5dbR-42" value="" style="endArrow=block;endSize=10;endFill=0;shadow=0;strokeWidth=1;rounded=1;curved=0;edgeStyle=elbowEdgeStyle;elbow=vertical;entryX=0.5;entryY=1;entryDx=0;entryDy=0;labelBackgroundColor=none;strokeColor=#457B9D;fontColor=default;exitX=0.5;exitY=0;exitDx=0;exitDy=0;fontSize=14;" parent="1" source="DNhez1r4yHRH3-gP5dbR-25" target="DNhez1r4yHRH3-gP5dbR-24" edge="1">
          <mxGeometry width="160" relative="1" as="geometry">
            <mxPoint x="620" y="170" as="sourcePoint" />
            <mxPoint x="870" y="278" as="targetPoint" />
            <Array as="points">
              <mxPoint x="600" y="160" />
            </Array>
          </mxGeometry>
        </mxCell>
        <mxCell id="DNhez1r4yHRH3-gP5dbR-43" value="" style="endArrow=block;endSize=10;endFill=0;shadow=0;strokeWidth=1;rounded=1;curved=0;edgeStyle=elbowEdgeStyle;elbow=vertical;labelBackgroundColor=none;strokeColor=#457B9D;fontColor=default;entryX=0.5;entryY=1;entryDx=0;entryDy=0;exitX=0.5;exitY=0;exitDx=0;exitDy=0;fontSize=14;" parent="1" source="DNhez1r4yHRH3-gP5dbR-26" target="DNhez1r4yHRH3-gP5dbR-24" edge="1">
          <mxGeometry width="160" relative="1" as="geometry">
            <mxPoint x="630" y="180" as="sourcePoint" />
            <mxPoint x="850" y="110" as="targetPoint" />
            <Array as="points">
              <mxPoint x="830" y="160" />
            </Array>
          </mxGeometry>
        </mxCell>
        <mxCell id="DNhez1r4yHRH3-gP5dbR-44" value="" style="endArrow=block;endSize=10;endFill=0;shadow=0;strokeWidth=1;rounded=1;curved=0;edgeStyle=elbowEdgeStyle;elbow=vertical;labelBackgroundColor=none;strokeColor=#457B9D;fontColor=default;entryX=0.5;entryY=1;entryDx=0;entryDy=0;exitX=0.5;exitY=0;exitDx=0;exitDy=0;fontSize=14;" parent="1" source="DNhez1r4yHRH3-gP5dbR-29" target="DNhez1r4yHRH3-gP5dbR-24" edge="1">
          <mxGeometry width="160" relative="1" as="geometry">
            <mxPoint x="640" y="190" as="sourcePoint" />
            <mxPoint x="830" y="100" as="targetPoint" />
            <Array as="points">
              <mxPoint x="840" y="170" />
            </Array>
          </mxGeometry>
        </mxCell>
        <mxCell id="DNhez1r4yHRH3-gP5dbR-45" value="" style="endArrow=block;endSize=10;endFill=0;shadow=0;strokeWidth=1;rounded=1;curved=0;edgeStyle=elbowEdgeStyle;elbow=vertical;labelBackgroundColor=none;strokeColor=#457B9D;fontColor=default;entryX=0.5;entryY=1;entryDx=0;entryDy=0;exitX=0.5;exitY=0;exitDx=0;exitDy=0;fontSize=14;" parent="1" source="DNhez1r4yHRH3-gP5dbR-27" target="DNhez1r4yHRH3-gP5dbR-24" edge="1">
          <mxGeometry width="160" relative="1" as="geometry">
            <mxPoint x="650" y="200" as="sourcePoint" />
            <mxPoint x="840" y="110" as="targetPoint" />
            <Array as="points">
              <mxPoint x="960" y="160" />
            </Array>
          </mxGeometry>
        </mxCell>
        <mxCell id="DNhez1r4yHRH3-gP5dbR-46" value="" style="endArrow=block;endSize=10;endFill=0;shadow=0;strokeWidth=1;rounded=1;curved=0;edgeStyle=elbowEdgeStyle;elbow=vertical;labelBackgroundColor=none;strokeColor=#457B9D;fontColor=default;entryX=0.5;entryY=1;entryDx=0;entryDy=0;exitX=0.5;exitY=0;exitDx=0;exitDy=0;fontSize=14;" parent="1" source="DNhez1r4yHRH3-gP5dbR-28" target="DNhez1r4yHRH3-gP5dbR-24" edge="1">
          <mxGeometry width="160" relative="1" as="geometry">
            <mxPoint x="1327.142857142857" y="90" as="sourcePoint" />
            <mxPoint x="850" y="120" as="targetPoint" />
            <Array as="points">
              <mxPoint x="1080" y="160" />
            </Array>
          </mxGeometry>
        </mxCell>
        <mxCell id="DNhez1r4yHRH3-gP5dbR-47" value="Aberration" style="rounded=1;whiteSpace=wrap;html=1;labelBackgroundColor=none;fillColor=#A8DADC;strokeColor=#457B9D;fontColor=#1D3557;fontSize=14;" parent="1" vertex="1">
          <mxGeometry x="-156" y="630" width="110" height="40" as="geometry" />
        </mxCell>
        <mxCell id="DNhez1r4yHRH3-gP5dbR-51" value="Fiend" style="rounded=1;whiteSpace=wrap;html=1;labelBackgroundColor=none;fillColor=#A8DADC;strokeColor=#457B9D;fontColor=#1D3557;fontSize=14;" parent="1" vertex="1">
          <mxGeometry x="960" y="630" width="110" height="40" as="geometry" />
        </mxCell>
        <mxCell id="DNhez1r4yHRH3-gP5dbR-52" value="Fey" style="rounded=1;whiteSpace=wrap;html=1;labelBackgroundColor=none;fillColor=#A8DADC;strokeColor=#457B9D;fontColor=#1D3557;fontSize=14;" parent="1" vertex="1">
          <mxGeometry x="800" y="630" width="110" height="40" as="geometry" />
        </mxCell>
        <mxCell id="DNhez1r4yHRH3-gP5dbR-60" value="Construct" style="rounded=1;whiteSpace=wrap;html=1;labelBackgroundColor=none;fillColor=#A8DADC;strokeColor=#457B9D;fontColor=#1D3557;fontSize=14;" parent="1" vertex="1">
          <mxGeometry x="325" y="630" width="110" height="40" as="geometry" />
        </mxCell>
        <mxCell id="DNhez1r4yHRH3-gP5dbR-61" value="Celestial" style="rounded=1;whiteSpace=wrap;html=1;labelBackgroundColor=none;fillColor=#A8DADC;strokeColor=#457B9D;fontColor=#1D3557;fontSize=14;" parent="1" vertex="1">
          <mxGeometry x="167" y="630" width="110" height="40" as="geometry" />
        </mxCell>
        <mxCell id="DNhez1r4yHRH3-gP5dbR-62" value="Beast" style="rounded=1;whiteSpace=wrap;html=1;labelBackgroundColor=none;fillColor=#A8DADC;strokeColor=#457B9D;fontColor=#1D3557;fontSize=14;" parent="1" vertex="1">
          <mxGeometry x="8" y="630" width="110" height="40" as="geometry" />
        </mxCell>
        <mxCell id="DNhez1r4yHRH3-gP5dbR-63" value="Undead" style="rounded=1;whiteSpace=wrap;html=1;labelBackgroundColor=none;fillColor=#A8DADC;strokeColor=#457B9D;fontColor=#1D3557;fontSize=14;" parent="1" vertex="1">
          <mxGeometry x="1922" y="630" width="110" height="40" as="geometry" />
        </mxCell>
        <mxCell id="DNhez1r4yHRH3-gP5dbR-64" value="Shapechanger" style="rounded=1;whiteSpace=wrap;html=1;labelBackgroundColor=none;fillColor=#A8DADC;strokeColor=#457B9D;fontColor=#1D3557;fontSize=14;" parent="1" vertex="1">
          <mxGeometry x="1758" y="630" width="110" height="40" as="geometry" />
        </mxCell>
        <mxCell id="DNhez1r4yHRH3-gP5dbR-65" value="Plant" style="rounded=1;whiteSpace=wrap;html=1;labelBackgroundColor=none;fillColor=#A8DADC;strokeColor=#457B9D;fontColor=#1D3557;fontSize=14;" parent="1" vertex="1">
          <mxGeometry x="1595" y="630" width="110" height="40" as="geometry" />
        </mxCell>
        <mxCell id="DNhez1r4yHRH3-gP5dbR-66" value="Ooze" style="rounded=1;whiteSpace=wrap;html=1;labelBackgroundColor=none;fillColor=#A8DADC;strokeColor=#457B9D;fontColor=#1D3557;fontSize=14;" parent="1" vertex="1">
          <mxGeometry x="1440" y="630" width="110" height="40" as="geometry" />
        </mxCell>
        <mxCell id="DNhez1r4yHRH3-gP5dbR-67" value="Monstrosity" style="rounded=1;whiteSpace=wrap;html=1;labelBackgroundColor=none;fillColor=#A8DADC;strokeColor=#457B9D;fontColor=#1D3557;fontSize=14;" parent="1" vertex="1">
          <mxGeometry x="1282" y="630" width="110" height="40" as="geometry" />
        </mxCell>
        <mxCell id="DNhez1r4yHRH3-gP5dbR-68" value="Giant" style="rounded=1;whiteSpace=wrap;html=1;labelBackgroundColor=none;fillColor=#A8DADC;strokeColor=#457B9D;fontColor=#1D3557;fontSize=14;" parent="1" vertex="1">
          <mxGeometry x="1121" y="630" width="110" height="40" as="geometry" />
        </mxCell>
        <mxCell id="DNhez1r4yHRH3-gP5dbR-70" value="" style="endArrow=block;endSize=10;endFill=0;shadow=0;strokeWidth=1;rounded=1;curved=0;edgeStyle=elbowEdgeStyle;elbow=vertical;entryX=0.5;entryY=1;entryDx=0;entryDy=0;exitX=0.5;exitY=0;exitDx=0;exitDy=0;labelBackgroundColor=none;strokeColor=#457B9D;fontColor=default;fontSize=14;" parent="1" source="DNhez1r4yHRH3-gP5dbR-47" target="DNhez1r4yHRH3-gP5dbR-29" edge="1">
          <mxGeometry width="160" relative="1" as="geometry">
            <mxPoint x="-530" y="410" as="sourcePoint" />
            <mxPoint x="870" y="278" as="targetPoint" />
            <Array as="points">
              <mxPoint x="260" y="570" />
            </Array>
          </mxGeometry>
        </mxCell>
        <mxCell id="DNhez1r4yHRH3-gP5dbR-71" value="" style="endArrow=block;endSize=10;endFill=0;shadow=0;strokeWidth=1;rounded=1;curved=0;edgeStyle=elbowEdgeStyle;elbow=vertical;entryX=0.5;entryY=1;entryDx=0;entryDy=0;exitX=0.5;exitY=0;exitDx=0;exitDy=0;labelBackgroundColor=none;strokeColor=#457B9D;fontColor=default;fontSize=14;" parent="1" source="DNhez1r4yHRH3-gP5dbR-62" target="DNhez1r4yHRH3-gP5dbR-29" edge="1">
          <mxGeometry width="160" relative="1" as="geometry">
            <mxPoint x="-530" y="432" as="sourcePoint" />
            <mxPoint x="870" y="300" as="targetPoint" />
            <Array as="points">
              <mxPoint x="360" y="570" />
            </Array>
          </mxGeometry>
        </mxCell>
        <mxCell id="DNhez1r4yHRH3-gP5dbR-72" value="" style="endArrow=block;endSize=10;endFill=0;shadow=0;strokeWidth=1;rounded=1;curved=0;edgeStyle=elbowEdgeStyle;elbow=vertical;exitX=0.5;exitY=0;exitDx=0;exitDy=0;labelBackgroundColor=none;strokeColor=#457B9D;fontColor=default;entryX=0.5;entryY=1;entryDx=0;entryDy=0;fontSize=14;" parent="1" source="DNhez1r4yHRH3-gP5dbR-61" target="DNhez1r4yHRH3-gP5dbR-29" edge="1">
          <mxGeometry width="160" relative="1" as="geometry">
            <mxPoint x="-510" y="430" as="sourcePoint" />
            <mxPoint x="890" y="298" as="targetPoint" />
            <Array as="points">
              <mxPoint x="450" y="570" />
            </Array>
          </mxGeometry>
        </mxCell>
        <mxCell id="DNhez1r4yHRH3-gP5dbR-73" value="" style="endArrow=block;endSize=10;endFill=0;shadow=0;strokeWidth=1;rounded=1;curved=0;edgeStyle=elbowEdgeStyle;elbow=vertical;entryX=0.5;entryY=1;entryDx=0;entryDy=0;labelBackgroundColor=none;strokeColor=#457B9D;fontColor=default;exitX=0.5;exitY=0;exitDx=0;exitDy=0;fontSize=14;" parent="1" source="DNhez1r4yHRH3-gP5dbR-69" target="DNhez1r4yHRH3-gP5dbR-29" edge="1">
          <mxGeometry width="160" relative="1" as="geometry">
            <mxPoint x="478.66668701171875" y="510" as="sourcePoint" />
            <mxPoint x="900" y="308" as="targetPoint" />
            <Array as="points">
              <mxPoint x="640" y="570" />
            </Array>
          </mxGeometry>
        </mxCell>
        <mxCell id="DNhez1r4yHRH3-gP5dbR-74" value="" style="endArrow=block;endSize=10;endFill=0;shadow=0;strokeWidth=1;rounded=1;curved=0;edgeStyle=elbowEdgeStyle;elbow=vertical;entryX=0.5;entryY=1;entryDx=0;entryDy=0;exitX=0.5;exitY=0;exitDx=0;exitDy=0;labelBackgroundColor=none;strokeColor=#457B9D;fontColor=default;fontSize=14;" parent="1" source="DNhez1r4yHRH3-gP5dbR-60" target="DNhez1r4yHRH3-gP5dbR-29" edge="1">
          <mxGeometry width="160" relative="1" as="geometry">
            <mxPoint x="-490" y="450" as="sourcePoint" />
            <mxPoint x="910" y="318" as="targetPoint" />
            <Array as="points">
              <mxPoint x="550" y="570" />
            </Array>
          </mxGeometry>
        </mxCell>
        <mxCell id="DNhez1r4yHRH3-gP5dbR-75" value="" style="endArrow=block;endSize=10;endFill=0;shadow=0;strokeWidth=1;rounded=1;curved=0;edgeStyle=elbowEdgeStyle;elbow=vertical;entryX=0.5;entryY=1;entryDx=0;entryDy=0;labelBackgroundColor=none;strokeColor=#457B9D;fontColor=default;exitX=0.5;exitY=0;exitDx=0;exitDy=0;fontSize=14;" parent="1" source="DNhez1r4yHRH3-gP5dbR-53" target="DNhez1r4yHRH3-gP5dbR-29" edge="1">
          <mxGeometry width="160" relative="1" as="geometry">
            <mxPoint x="762.6666259765625" y="520" as="sourcePoint" />
            <mxPoint x="920" y="328" as="targetPoint" />
            <Array as="points">
              <mxPoint x="750" y="570" />
            </Array>
          </mxGeometry>
        </mxCell>
        <mxCell id="DNhez1r4yHRH3-gP5dbR-76" value="" style="endArrow=block;endSize=10;endFill=0;shadow=0;strokeWidth=1;rounded=1;curved=0;edgeStyle=elbowEdgeStyle;elbow=vertical;entryX=0.5;entryY=1;entryDx=0;entryDy=0;labelBackgroundColor=none;strokeColor=#457B9D;fontColor=default;exitX=0.5;exitY=0;exitDx=0;exitDy=0;fontSize=14;" parent="1" source="DNhez1r4yHRH3-gP5dbR-67" target="DNhez1r4yHRH3-gP5dbR-29" edge="1">
          <mxGeometry width="160" relative="1" as="geometry">
            <mxPoint x="1363.3333333333333" y="490" as="sourcePoint" />
            <mxPoint x="930" y="338" as="targetPoint" />
            <Array as="points">
              <mxPoint x="1150" y="570" />
            </Array>
          </mxGeometry>
        </mxCell>
        <mxCell id="DNhez1r4yHRH3-gP5dbR-77" value="" style="endArrow=block;endSize=10;endFill=0;shadow=0;strokeWidth=1;rounded=1;edgeStyle=orthogonalEdgeStyle;elbow=vertical;labelBackgroundColor=none;strokeColor=#457B9D;fontColor=default;entryX=0.5;entryY=1;entryDx=0;entryDy=0;exitX=0.5;exitY=0;exitDx=0;exitDy=0;fontSize=14;" parent="1" source="DNhez1r4yHRH3-gP5dbR-64" target="DNhez1r4yHRH3-gP5dbR-29" edge="1">
          <mxGeometry width="160" relative="1" as="geometry">
            <mxPoint x="1811.3334147135417" y="490" as="sourcePoint" />
            <mxPoint x="940" y="348" as="targetPoint" />
            <Array as="points">
              <mxPoint x="1813" y="570" />
              <mxPoint x="860" y="570" />
            </Array>
          </mxGeometry>
        </mxCell>
        <mxCell id="DNhez1r4yHRH3-gP5dbR-78" value="" style="endArrow=block;endSize=10;endFill=0;shadow=0;strokeWidth=1;rounded=1;edgeStyle=orthogonalEdgeStyle;elbow=vertical;entryX=0.5;entryY=1;entryDx=0;entryDy=0;labelBackgroundColor=none;strokeColor=#457B9D;fontColor=default;exitX=0.5;exitY=0;exitDx=0;exitDy=0;fontSize=14;" parent="1" source="DNhez1r4yHRH3-gP5dbR-66" target="DNhez1r4yHRH3-gP5dbR-29" edge="1">
          <mxGeometry width="160" relative="1" as="geometry">
            <mxPoint x="970" y="510" as="sourcePoint" />
            <mxPoint x="950" y="358" as="targetPoint" />
            <Array as="points">
              <mxPoint x="1495" y="570" />
              <mxPoint x="860" y="570" />
            </Array>
          </mxGeometry>
        </mxCell>
        <mxCell id="DNhez1r4yHRH3-gP5dbR-79" value="" style="endArrow=block;endSize=10;endFill=0;shadow=0;strokeWidth=1;rounded=1;edgeStyle=orthogonalEdgeStyle;elbow=vertical;entryX=0.5;entryY=1;entryDx=0;entryDy=0;labelBackgroundColor=none;strokeColor=#457B9D;fontColor=default;exitX=0.5;exitY=0;exitDx=0;exitDy=0;fontSize=14;" parent="1" source="DNhez1r4yHRH3-gP5dbR-65" target="DNhez1r4yHRH3-gP5dbR-29" edge="1">
          <mxGeometry width="160" relative="1" as="geometry">
            <mxPoint x="1872.0001220703125" y="310" as="sourcePoint" />
            <mxPoint x="960" y="368" as="targetPoint" />
            <Array as="points">
              <mxPoint x="1650" y="570" />
              <mxPoint x="860" y="570" />
            </Array>
          </mxGeometry>
        </mxCell>
        <mxCell id="DNhez1r4yHRH3-gP5dbR-80" value="" style="endArrow=block;endSize=10;endFill=0;shadow=0;strokeWidth=1;rounded=1;edgeStyle=orthogonalEdgeStyle;entryX=0.5;entryY=1;entryDx=0;entryDy=0;labelBackgroundColor=none;strokeColor=#457B9D;fontColor=default;exitX=0.5;exitY=0;exitDx=0;exitDy=0;fontSize=14;" parent="1" source="DNhez1r4yHRH3-gP5dbR-68" target="DNhez1r4yHRH3-gP5dbR-29" edge="1">
          <mxGeometry width="160" relative="1" as="geometry">
            <mxPoint x="1214.0000406901042" y="490" as="sourcePoint" />
            <mxPoint x="970" y="378" as="targetPoint" />
            <Array as="points">
              <mxPoint x="1176" y="570" />
              <mxPoint x="860" y="570" />
            </Array>
          </mxGeometry>
        </mxCell>
        <mxCell id="DNhez1r4yHRH3-gP5dbR-81" value="" style="endArrow=block;endSize=10;endFill=0;shadow=0;strokeWidth=1;rounded=1;edgeStyle=orthogonalEdgeStyle;entryX=0.5;entryY=1;entryDx=0;entryDy=0;labelBackgroundColor=none;strokeColor=#457B9D;fontColor=default;exitX=0.5;exitY=0;exitDx=0;exitDy=0;fontSize=14;" parent="1" source="DNhez1r4yHRH3-gP5dbR-51" target="DNhez1r4yHRH3-gP5dbR-29" edge="1">
          <mxGeometry width="160" relative="1" as="geometry">
            <mxPoint x="910" y="530" as="sourcePoint" />
            <mxPoint x="980" y="388" as="targetPoint" />
            <Array as="points">
              <mxPoint x="1015" y="570" />
              <mxPoint x="860" y="570" />
            </Array>
          </mxGeometry>
        </mxCell>
        <mxCell id="DNhez1r4yHRH3-gP5dbR-82" value="" style="endArrow=block;endSize=10;endFill=0;shadow=0;strokeWidth=1;rounded=1;curved=0;edgeStyle=elbowEdgeStyle;elbow=vertical;entryX=0.5;entryY=1;entryDx=0;entryDy=0;labelBackgroundColor=none;strokeColor=#457B9D;fontColor=default;exitX=0.5;exitY=0;exitDx=0;exitDy=0;fontSize=14;" parent="1" source="DNhez1r4yHRH3-gP5dbR-63" target="DNhez1r4yHRH3-gP5dbR-29" edge="1">
          <mxGeometry width="160" relative="1" as="geometry">
            <mxPoint x="2231.3334147135415" y="340" as="sourcePoint" />
            <mxPoint x="990" y="398" as="targetPoint" />
            <Array as="points">
              <mxPoint x="1550" y="570" />
            </Array>
          </mxGeometry>
        </mxCell>
        <mxCell id="DNhez1r4yHRH3-gP5dbR-83" value="" style="endArrow=block;endSize=10;endFill=0;shadow=0;strokeWidth=1;rounded=1;curved=0;edgeStyle=elbowEdgeStyle;elbow=vertical;entryX=0.5;entryY=1;entryDx=0;entryDy=0;labelBackgroundColor=none;strokeColor=#457B9D;fontColor=default;exitX=0.5;exitY=0;exitDx=0;exitDy=0;fontSize=14;" parent="1" source="DNhez1r4yHRH3-gP5dbR-52" target="DNhez1r4yHRH3-gP5dbR-29" edge="1">
          <mxGeometry width="160" relative="1" as="geometry">
            <mxPoint x="671" y="410" as="sourcePoint" />
            <mxPoint x="870" y="278" as="targetPoint" />
            <Array as="points">
              <mxPoint x="860" y="570" />
            </Array>
          </mxGeometry>
        </mxCell>
        <mxCell id="DNhez1r4yHRH3-gP5dbR-84" value="ColorDragon" style="rounded=1;whiteSpace=wrap;html=1;labelBackgroundColor=none;fillColor=#A8DADC;strokeColor=#457B9D;fontColor=#1D3557;fontSize=14;" parent="1" vertex="1">
          <mxGeometry x="132" y="800" width="110" height="40" as="geometry" />
        </mxCell>
        <mxCell id="DNhez1r4yHRH3-gP5dbR-86" value="Wyvern" style="rounded=1;whiteSpace=wrap;html=1;labelBackgroundColor=none;fillColor=#A8DADC;strokeColor=#457B9D;fontColor=#1D3557;fontSize=14;" parent="1" vertex="1">
          <mxGeometry x="802" y="800" width="110" height="40" as="geometry" />
        </mxCell>
        <mxCell id="DNhez1r4yHRH3-gP5dbR-87" value="Pseudodragon" style="rounded=1;whiteSpace=wrap;html=1;labelBackgroundColor=none;fillColor=#A8DADC;strokeColor=#457B9D;fontColor=#1D3557;fontSize=14;" parent="1" vertex="1">
          <mxGeometry x="602.5" y="800" width="110" height="40" as="geometry" />
        </mxCell>
        <mxCell id="DNhez1r4yHRH3-gP5dbR-88" value="" style="endArrow=block;endSize=10;endFill=0;shadow=0;strokeWidth=1;rounded=1;curved=0;edgeStyle=elbowEdgeStyle;elbow=vertical;labelBackgroundColor=none;strokeColor=#457B9D;fontColor=default;entryX=0.5;entryY=1;entryDx=0;entryDy=0;exitX=0.5;exitY=0;exitDx=0;exitDy=0;fontSize=14;" parent="1" source="DNhez1r4yHRH3-gP5dbR-84" target="DNhez1r4yHRH3-gP5dbR-69" edge="1">
          <mxGeometry width="160" relative="1" as="geometry">
            <mxPoint x="470" y="828" as="sourcePoint" />
            <mxPoint x="470" y="710" as="targetPoint" />
            <Array as="points">
              <mxPoint x="300" y="750" />
            </Array>
          </mxGeometry>
        </mxCell>
        <mxCell id="DNhez1r4yHRH3-gP5dbR-89" value="" style="endArrow=block;endSize=10;endFill=0;shadow=0;strokeWidth=1;rounded=1;curved=0;edgeStyle=elbowEdgeStyle;elbow=vertical;labelBackgroundColor=none;strokeColor=#457B9D;fontColor=default;entryX=0.5;entryY=1;entryDx=0;entryDy=0;exitX=0.5;exitY=0;exitDx=0;exitDy=0;fontSize=14;" parent="1" source="DNhez1r4yHRH3-gP5dbR-101" target="DNhez1r4yHRH3-gP5dbR-69" edge="1">
          <mxGeometry width="160" relative="1" as="geometry">
            <mxPoint x="340" y="770" as="sourcePoint" />
            <mxPoint x="480" y="720" as="targetPoint" />
            <Array as="points">
              <mxPoint x="450" y="750" />
            </Array>
          </mxGeometry>
        </mxCell>
        <mxCell id="DNhez1r4yHRH3-gP5dbR-90" value="" style="endArrow=block;endSize=10;endFill=0;shadow=0;strokeWidth=1;rounded=1;curved=0;edgeStyle=elbowEdgeStyle;elbow=vertical;labelBackgroundColor=none;strokeColor=#457B9D;fontColor=default;entryX=0.5;entryY=1;entryDx=0;entryDy=0;exitX=0.5;exitY=0;exitDx=0;exitDy=0;fontSize=14;" parent="1" source="DNhez1r4yHRH3-gP5dbR-87" target="DNhez1r4yHRH3-gP5dbR-69" edge="1">
          <mxGeometry width="160" relative="1" as="geometry">
            <mxPoint x="490" y="848" as="sourcePoint" />
            <mxPoint x="490" y="730" as="targetPoint" />
            <Array as="points">
              <mxPoint x="520" y="750" />
            </Array>
          </mxGeometry>
        </mxCell>
        <mxCell id="DNhez1r4yHRH3-gP5dbR-91" value="" style="endArrow=block;endSize=10;endFill=0;shadow=0;strokeWidth=1;rounded=1;curved=0;edgeStyle=elbowEdgeStyle;elbow=vertical;labelBackgroundColor=none;strokeColor=#457B9D;fontColor=default;entryX=0.5;entryY=1;entryDx=0;entryDy=0;exitX=0.5;exitY=0;exitDx=0;exitDy=0;fontSize=14;" parent="1" source="DNhez1r4yHRH3-gP5dbR-86" target="DNhez1r4yHRH3-gP5dbR-69" edge="1">
          <mxGeometry width="160" relative="1" as="geometry">
            <mxPoint x="500" y="858" as="sourcePoint" />
            <mxPoint x="500" y="740" as="targetPoint" />
            <Array as="points">
              <mxPoint x="610" y="750" />
            </Array>
          </mxGeometry>
        </mxCell>
        <mxCell id="DNhez1r4yHRH3-gP5dbR-92" value="subclass of" style="text;html=1;align=center;verticalAlign=middle;whiteSpace=wrap;rounded=1;fontColor=#1D3557;labelBackgroundColor=none;fontSize=14;" parent="1" vertex="1">
          <mxGeometry x="400" y="140" width="90" height="20" as="geometry" />
        </mxCell>
        <mxCell id="DNhez1r4yHRH3-gP5dbR-93" value="hasAlignment" style="endArrow=open;endSize=12;dashed=1;html=1;rounded=1;labelBackgroundColor=none;strokeColor=#457B9D;fontColor=default;entryX=0;entryY=1;entryDx=0;entryDy=0;exitX=0.75;exitY=0;exitDx=0;exitDy=0;fontSize=14;" parent="1" source="DNhez1r4yHRH3-gP5dbR-101" target="DNhez1r4yHRH3-gP5dbR-97" edge="1">
          <mxGeometry x="-0.9379" y="21" width="160" relative="1" as="geometry">
            <mxPoint x="390" y="770" as="sourcePoint" />
            <mxPoint x="1203" y="440" as="targetPoint" />
            <mxPoint as="offset" />
          </mxGeometry>
        </mxCell>
        <mxCell id="DNhez1r4yHRH3-gP5dbR-94" value="hasSize" style="endArrow=open;endSize=12;dashed=1;html=1;rounded=1;labelBackgroundColor=none;strokeColor=#457B9D;fontColor=default;entryX=0;entryY=0.75;entryDx=0;entryDy=0;exitX=0.75;exitY=0;exitDx=0;exitDy=0;fontSize=14;" parent="1" source="DNhez1r4yHRH3-gP5dbR-101" target="DNhez1r4yHRH3-gP5dbR-98" edge="1">
          <mxGeometry x="-0.8639" y="-22" width="160" relative="1" as="geometry">
            <mxPoint x="440" y="790" as="sourcePoint" />
            <mxPoint x="1210" y="410" as="targetPoint" />
            <mxPoint as="offset" />
          </mxGeometry>
        </mxCell>
        <mxCell id="DNhez1r4yHRH3-gP5dbR-97" value="Neutral" style="rounded=1;whiteSpace=wrap;html=1;labelBackgroundColor=none;fillColor=#A8DADC;strokeColor=#457B9D;fontColor=#1D3557;fontSize=14;" parent="1" vertex="1">
          <mxGeometry x="1050" y="350" width="100" height="30" as="geometry" />
        </mxCell>
        <mxCell id="DNhez1r4yHRH3-gP5dbR-98" value="Gargantuan" style="rounded=1;whiteSpace=wrap;html=1;labelBackgroundColor=none;fillColor=#A8DADC;strokeColor=#457B9D;fontColor=#1D3557;fontSize=14;" parent="1" vertex="1">
          <mxGeometry x="1290" y="350" width="100" height="30" as="geometry" />
        </mxCell>
        <mxCell id="DNhez1r4yHRH3-gP5dbR-99" value="" style="endArrow=block;endSize=10;endFill=0;shadow=0;strokeWidth=1;rounded=1;curved=0;edgeStyle=elbowEdgeStyle;elbow=vertical;labelBackgroundColor=none;strokeColor=#457B9D;fontColor=default;exitX=0.5;exitY=0;exitDx=0;exitDy=0;entryX=0.5;entryY=1;entryDx=0;entryDy=0;fontSize=14;" parent="1" source="DNhez1r4yHRH3-gP5dbR-98" target="DNhez1r4yHRH3-gP5dbR-28" edge="1">
          <mxGeometry width="160" relative="1" as="geometry">
            <mxPoint x="1280" y="470" as="sourcePoint" />
            <mxPoint x="1340" y="310" as="targetPoint" />
            <Array as="points">
              <mxPoint x="1330" y="320" />
            </Array>
          </mxGeometry>
        </mxCell>
        <mxCell id="DNhez1r4yHRH3-gP5dbR-100" value="" style="endArrow=block;endSize=10;endFill=0;shadow=0;strokeWidth=1;rounded=1;curved=0;edgeStyle=elbowEdgeStyle;elbow=vertical;labelBackgroundColor=none;strokeColor=#457B9D;fontColor=default;entryX=0.5;entryY=1;entryDx=0;entryDy=0;exitX=0.5;exitY=0;exitDx=0;exitDy=0;fontSize=14;" parent="1" source="DNhez1r4yHRH3-gP5dbR-97" target="DNhez1r4yHRH3-gP5dbR-27" edge="1">
          <mxGeometry width="160" relative="1" as="geometry">
            <mxPoint x="1010" y="340" as="sourcePoint" />
            <mxPoint x="1190" y="320" as="targetPoint" />
            <Array as="points">
              <mxPoint x="1060" y="310" />
            </Array>
          </mxGeometry>
        </mxCell>
        <mxCell id="DNhez1r4yHRH3-gP5dbR-101" value="DragonTurtle" style="swimlane;fontStyle=0;childLayout=stackLayout;horizontal=1;startSize=60;fillColor=none;horizontalStack=0;resizeParent=1;resizeParentMax=0;resizeLast=0;collapsible=1;marginBottom=0;whiteSpace=wrap;html=1;strokeColor=#457B9D;fontColor=#1D3557;labelBackgroundColor=none;rounded=1;fontSize=19;" parent="1" vertex="1">
          <mxGeometry x="332" y="800" width="190" height="346" as="geometry" />
        </mxCell>
        <mxCell id="DNhez1r4yHRH3-gP5dbR-102" value="+ armorClass : 20" style="text;strokeColor=none;fillColor=none;align=left;verticalAlign=top;spacingLeft=4;spacingRight=4;overflow=hidden;rotatable=0;points=[[0,0.5],[1,0.5]];portConstraint=eastwest;whiteSpace=wrap;html=1;fontColor=#1D3557;fontSize=15;labelBackgroundColor=none;rounded=1;" parent="DNhez1r4yHRH3-gP5dbR-101" vertex="1">
          <mxGeometry y="60" width="190" height="26" as="geometry" />
        </mxCell>
        <mxCell id="DNhez1r4yHRH3-gP5dbR-103" value="+ hasCharisma : 12" style="text;strokeColor=none;fillColor=none;align=left;verticalAlign=top;spacingLeft=4;spacingRight=4;overflow=hidden;rotatable=0;points=[[0,0.5],[1,0.5]];portConstraint=eastwest;whiteSpace=wrap;html=1;fontColor=#1D3557;fontSize=15;labelBackgroundColor=none;rounded=1;" parent="DNhez1r4yHRH3-gP5dbR-101" vertex="1">
          <mxGeometry y="86" width="190" height="26" as="geometry" />
        </mxCell>
        <mxCell id="DNhez1r4yHRH3-gP5dbR-104" value="+ hasConstitution : 20" style="text;strokeColor=none;fillColor=none;align=left;verticalAlign=top;spacingLeft=4;spacingRight=4;overflow=hidden;rotatable=0;points=[[0,0.5],[1,0.5]];portConstraint=eastwest;whiteSpace=wrap;html=1;fontColor=#1D3557;fontSize=15;labelBackgroundColor=none;rounded=1;" parent="DNhez1r4yHRH3-gP5dbR-101" vertex="1">
          <mxGeometry y="112" width="190" height="26" as="geometry" />
        </mxCell>
        <mxCell id="DNhez1r4yHRH3-gP5dbR-106" value="+ hasDexterity : 10" style="text;strokeColor=none;fillColor=none;align=left;verticalAlign=top;spacingLeft=4;spacingRight=4;overflow=hidden;rotatable=0;points=[[0,0.5],[1,0.5]];portConstraint=eastwest;whiteSpace=wrap;html=1;fontColor=#1D3557;fontSize=15;labelBackgroundColor=none;rounded=1;" parent="DNhez1r4yHRH3-gP5dbR-101" vertex="1">
          <mxGeometry y="138" width="190" height="26" as="geometry" />
        </mxCell>
        <mxCell id="DNhez1r4yHRH3-gP5dbR-107" value="+ hasIntelligence : 10" style="text;strokeColor=none;fillColor=none;align=left;verticalAlign=top;spacingLeft=4;spacingRight=4;overflow=hidden;rotatable=0;points=[[0,0.5],[1,0.5]];portConstraint=eastwest;whiteSpace=wrap;html=1;fontColor=#1D3557;fontSize=15;labelBackgroundColor=none;rounded=1;" parent="DNhez1r4yHRH3-gP5dbR-101" vertex="1">
          <mxGeometry y="164" width="190" height="26" as="geometry" />
        </mxCell>
        <mxCell id="DNhez1r4yHRH3-gP5dbR-108" value="+ hasStrength : 25" style="text;strokeColor=none;fillColor=none;align=left;verticalAlign=top;spacingLeft=4;spacingRight=4;overflow=hidden;rotatable=0;points=[[0,0.5],[1,0.5]];portConstraint=eastwest;whiteSpace=wrap;html=1;fontColor=#1D3557;fontSize=15;labelBackgroundColor=none;rounded=1;" parent="DNhez1r4yHRH3-gP5dbR-101" vertex="1">
          <mxGeometry y="190" width="190" height="26" as="geometry" />
        </mxCell>
        <mxCell id="DNhez1r4yHRH3-gP5dbR-109" value="+ hasWisdom : 12" style="text;strokeColor=none;fillColor=none;align=left;verticalAlign=top;spacingLeft=4;spacingRight=4;overflow=hidden;rotatable=0;points=[[0,0.5],[1,0.5]];portConstraint=eastwest;whiteSpace=wrap;html=1;fontColor=#1D3557;fontSize=15;labelBackgroundColor=none;rounded=1;" parent="DNhez1r4yHRH3-gP5dbR-101" vertex="1">
          <mxGeometry y="216" width="190" height="26" as="geometry" />
        </mxCell>
        <mxCell id="DNhez1r4yHRH3-gP5dbR-110" value="+ hitPoints : 341" style="text;strokeColor=none;fillColor=none;align=left;verticalAlign=top;spacingLeft=4;spacingRight=4;overflow=hidden;rotatable=0;points=[[0,0.5],[1,0.5]];portConstraint=eastwest;whiteSpace=wrap;html=1;fontColor=#1D3557;fontSize=15;labelBackgroundColor=none;rounded=1;" parent="DNhez1r4yHRH3-gP5dbR-101" vertex="1">
          <mxGeometry y="242" width="190" height="26" as="geometry" />
        </mxCell>
        <mxCell id="DNhez1r4yHRH3-gP5dbR-111" value="+ isSwimming : 40" style="text;strokeColor=none;fillColor=none;align=left;verticalAlign=top;spacingLeft=4;spacingRight=4;overflow=hidden;rotatable=0;points=[[0,0.5],[1,0.5]];portConstraint=eastwest;whiteSpace=wrap;html=1;fontColor=#1D3557;fontSize=15;labelBackgroundColor=none;rounded=1;" parent="DNhez1r4yHRH3-gP5dbR-101" vertex="1">
          <mxGeometry y="268" width="190" height="26" as="geometry" />
        </mxCell>
        <mxCell id="DNhez1r4yHRH3-gP5dbR-112" value="+ isWalking : 20" style="text;strokeColor=none;fillColor=none;align=left;verticalAlign=top;spacingLeft=4;spacingRight=4;overflow=hidden;rotatable=0;points=[[0,0.5],[1,0.5]];portConstraint=eastwest;whiteSpace=wrap;html=1;fontColor=#1D3557;fontSize=15;labelBackgroundColor=none;rounded=1;" parent="DNhez1r4yHRH3-gP5dbR-101" vertex="1">
          <mxGeometry y="294" width="190" height="26" as="geometry" />
        </mxCell>
        <mxCell id="DNhez1r4yHRH3-gP5dbR-113" value="&amp;nbsp; &amp;nbsp; &amp;nbsp; &amp;nbsp; &amp;nbsp; &amp;nbsp; &amp;nbsp; &amp;nbsp; &amp;nbsp; &amp;nbsp; &amp;nbsp; &amp;nbsp; &amp;nbsp; &amp;nbsp; &amp;nbsp; &amp;nbsp; &amp;nbsp;" style="text;strokeColor=none;fillColor=none;align=left;verticalAlign=top;spacingLeft=4;spacingRight=4;overflow=hidden;rotatable=0;points=[[0,0.5],[1,0.5]];portConstraint=eastwest;whiteSpace=wrap;html=1;fontColor=#1D3557;fontSize=15;labelBackgroundColor=none;rounded=1;" parent="DNhez1r4yHRH3-gP5dbR-101" vertex="1">
          <mxGeometry y="320" width="190" height="26" as="geometry" />
        </mxCell>
        <mxCell id="DNhez1r4yHRH3-gP5dbR-114" value="Coastal" style="rounded=1;whiteSpace=wrap;html=1;labelBackgroundColor=none;fillColor=#A8DADC;strokeColor=#457B9D;fontColor=#1D3557;fontSize=14;" parent="1" vertex="1">
          <mxGeometry x="480" y="350" width="100" height="30" as="geometry" />
        </mxCell>
        <mxCell id="DNhez1r4yHRH3-gP5dbR-115" value="Underwater" style="rounded=1;whiteSpace=wrap;html=1;labelBackgroundColor=none;fillColor=#A8DADC;strokeColor=#457B9D;fontColor=#1D3557;fontSize=14;" parent="1" vertex="1">
          <mxGeometry x="660" y="350" width="100" height="30" as="geometry" />
        </mxCell>
        <mxCell id="DNhez1r4yHRH3-gP5dbR-116" value="" style="endArrow=block;endSize=10;endFill=0;shadow=0;strokeWidth=1;rounded=1;curved=0;edgeStyle=elbowEdgeStyle;elbow=vertical;labelBackgroundColor=none;strokeColor=#457B9D;fontColor=default;exitX=0.5;exitY=0;exitDx=0;exitDy=0;entryX=0.5;entryY=1;entryDx=0;entryDy=0;fontSize=14;" parent="1" source="DNhez1r4yHRH3-gP5dbR-114" target="DNhez1r4yHRH3-gP5dbR-26" edge="1">
          <mxGeometry width="160" relative="1" as="geometry">
            <mxPoint x="500.5" y="342" as="sourcePoint" />
            <mxPoint x="600" y="310" as="targetPoint" />
            <Array as="points">
              <mxPoint x="600" y="320" />
            </Array>
          </mxGeometry>
        </mxCell>
        <mxCell id="DNhez1r4yHRH3-gP5dbR-117" value="" style="endArrow=block;endSize=10;endFill=0;shadow=0;strokeWidth=1;rounded=1;curved=0;edgeStyle=elbowEdgeStyle;elbow=vertical;labelBackgroundColor=none;strokeColor=#457B9D;fontColor=default;entryX=0.5;entryY=1;entryDx=0;entryDy=0;exitX=0.5;exitY=0;exitDx=0;exitDy=0;fontSize=14;" parent="1" source="DNhez1r4yHRH3-gP5dbR-115" target="DNhez1r4yHRH3-gP5dbR-26" edge="1">
          <mxGeometry width="160" relative="1" as="geometry">
            <mxPoint x="1120" y="370" as="sourcePoint" />
            <mxPoint x="1120" y="288" as="targetPoint" />
            <Array as="points">
              <mxPoint x="660" y="320" />
            </Array>
          </mxGeometry>
        </mxCell>
        <mxCell id="DNhez1r4yHRH3-gP5dbR-118" value="" style="endArrow=open;endSize=12;dashed=1;html=1;rounded=1;exitX=0.25;exitY=0;exitDx=0;exitDy=0;entryX=0.5;entryY=1;entryDx=0;entryDy=0;labelBackgroundColor=none;strokeColor=#457B9D;fontColor=default;fontSize=14;" parent="1" source="DNhez1r4yHRH3-gP5dbR-101" target="DNhez1r4yHRH3-gP5dbR-114" edge="1">
          <mxGeometry x="-0.0936" y="31" width="160" relative="1" as="geometry">
            <mxPoint x="640" y="460" as="sourcePoint" />
            <mxPoint x="520" y="462" as="targetPoint" />
            <Array as="points">
              <mxPoint x="570" y="440" />
              <mxPoint x="530" y="440" />
            </Array>
            <mxPoint as="offset" />
          </mxGeometry>
        </mxCell>
        <mxCell id="DNhez1r4yHRH3-gP5dbR-119" value="livesIn" style="endArrow=open;endSize=12;dashed=1;html=1;rounded=1;exitX=0.25;exitY=0;exitDx=0;exitDy=0;entryX=0.5;entryY=1;entryDx=0;entryDy=0;labelBackgroundColor=none;strokeColor=#457B9D;fontColor=default;fontSize=14;" parent="1" source="DNhez1r4yHRH3-gP5dbR-101" target="DNhez1r4yHRH3-gP5dbR-115" edge="1">
          <mxGeometry x="-0.9474" y="11" width="160" relative="1" as="geometry">
            <mxPoint x="820" y="258" as="sourcePoint" />
            <mxPoint x="700" y="260" as="targetPoint" />
            <Array as="points">
              <mxPoint x="570" y="440" />
              <mxPoint x="710" y="440" />
            </Array>
            <mxPoint as="offset" />
          </mxGeometry>
        </mxCell>
        <mxCell id="DNhez1r4yHRH3-gP5dbR-53" value="Elemental" style="rounded=1;whiteSpace=wrap;html=1;labelBackgroundColor=none;fillColor=#A8DADC;strokeColor=#457B9D;fontColor=#1D3557;fontSize=14;" parent="1" vertex="1">
          <mxGeometry x="643.5" y="630" width="110" height="40" as="geometry" />
        </mxCell>
        <mxCell id="DNhez1r4yHRH3-gP5dbR-69" value="Dragon" style="rounded=1;whiteSpace=wrap;html=1;labelBackgroundColor=none;fillColor=#A8DADC;strokeColor=#457B9D;fontColor=#1D3557;fontSize=18;" parent="1" vertex="1">
          <mxGeometry x="475" y="630" width="120" height="60" as="geometry" />
        </mxCell>
      </root>
    </mxGraphModel>
  </diagram>
</mxfile>
